<svg xmlns="http://www.w3.org/2000/svg" viewBox="0 0 82.3 133.54"><defs><style>.cls-1{fill:#afafaf;}.cls-2{fill:#bababa;}.cls-3{fill:#ff485e;}</style></defs><g id="Layer_2" data-name="Layer 2"><g id="Layer_1-2" data-name="Layer 1"><path class="cls-1" d="M34.93,133.54a4,4,0,0,1-1-.13,5.56,5.56,0,0,0-1.18,0,14.07,14.07,0,0,1-3.46-.16,1.54,1.54,0,0,1-1.08-.75,1.78,1.78,0,0,1,.92-1.92,2.36,2.36,0,0,0,1-1.24,6.82,6.82,0,0,1,.94-1.89,2.8,2.8,0,0,0,.69-1.68,2.49,2.49,0,0,1,.34-1.8.7.7,0,0,0,.07-.26,79,79,0,0,0-1.57-16c-1.24-5.22-.5-7.8-.11-9.19.06-.19.1-.36.14-.51a10.57,10.57,0,0,0,.1-3c0-.34,0-.69,0-1.06a8.73,8.73,0,0,0-.49-1.89,36.34,36.34,0,0,1-1.94-11.27c-.21-6.91,1.66-18.67,2.15-20.76l.13-.56a32.94,32.94,0,0,0,.91-4.92,40.4,40.4,0,0,0-.27-5.27c-.11-1.1-.2-2.06-.2-2.66A5.53,5.53,0,0,0,30.19,44a15.5,15.5,0,0,1-1.47-2.53,14.16,14.16,0,0,1-1.6,2.62,6.3,6.3,0,0,0-1.07,2.4c-.15.48-.33,1.06-.58,1.79-.92,2.76-4,6.25-5.35,7.27s-8.31,7.15-9,7.79a3.44,3.44,0,0,0-.81,1.2,7.49,7.49,0,0,1-.38.74A7.6,7.6,0,0,1,8,67.1,9.82,9.82,0,0,0,6.93,68L6.86,68c-.21.19-1.8,1.42-2.1,1.57a1,1,0,0,1-1.09,0l-.08-.09-.83.61A.86.86,0,0,1,1.64,70l-.08-.1a.78.78,0,0,1-1,0A.75.75,0,0,1,.47,69a.84.84,0,0,1-.24-.14.87.87,0,0,1-.15-1,11.65,11.65,0,0,1,1.16-2c.39-.53,1.06-1.38,1.48-1.91l.19-.24c.31-.39.9-1.29,1.07-1.55l-.25.06a6.64,6.64,0,0,1-2.42.11c-.85-.23-.88-.76-.87-.92s.29-.77,1.11-.75a7.2,7.2,0,0,0,2.72-.51,6.69,6.69,0,0,1,3.26-.27.93.93,0,0,0,.79-.1,23.92,23.92,0,0,0,6.13-8.64c1.67-4.49,3.71-6.16,4.69-7l.2-.16a2.18,2.18,0,0,0,.74-1.7,16,16,0,0,1,2.67-8.43c.1-.14.17-.25.21-.32a6.36,6.36,0,0,0,.49-2.33c.15-4.79,1.15-6.43,4.66-7.63A22.38,22.38,0,0,1,30.48,23a5.08,5.08,0,0,0,1.85-.67,17,17,0,0,1,3.75-1.78c.56-.19.74-.26.77-.4a19.3,19.3,0,0,0,0-3,6.8,6.8,0,0,1-1-2.39c-.4-.06-1.16-.39-1.38-1.93-.05-.32-.1-.64-.16-.94-.2-1.2-.33-2,.07-2.31a.61.61,0,0,1,.4-.11c-.13-1.12-.4-4.43.88-6.43,1.45-2.26,2.73-3,5.48-3h0c2.76.07,4.05.78,5.49,3,1.28,2,1,5.31.88,6.43a.6.6,0,0,1,.4.11c.41.32.27,1.11.07,2.31,0,.3-.11.62-.15.94-.23,1.54-1,1.87-1.39,1.93a8.59,8.59,0,0,1-1,2.61,16.56,16.56,0,0,0,0,2.73c0,.14.21.21.77.4A17,17,0,0,1,50,22.28a5,5,0,0,0,1.84.67,22.38,22.38,0,0,1,2.37.67c3.51,1.2,4.51,2.84,4.67,7.62a6.49,6.49,0,0,0,.48,2.34l.21.32a15.94,15.94,0,0,1,2.67,8.39A2.2,2.2,0,0,0,63,44l.2.16c1,.8,3,2.47,4.7,7A24.07,24.07,0,0,0,74,59.79a.94.94,0,0,0,.79.1,6.69,6.69,0,0,1,3.26.27,7.23,7.23,0,0,0,2.72.51c.81,0,1.09.48,1.11.75s0,.69-.87.92a6.59,6.59,0,0,1-2.41-.11l-.25-.06c.16.26.76,1.16,1.06,1.55l.19.24c.42.53,1.1,1.38,1.48,1.91a12.56,12.56,0,0,1,1.17,2,.87.87,0,0,1-.16,1,.72.72,0,0,1-.24.14.74.74,0,0,1-.11.92.78.78,0,0,1-1,0l-.08.1a.85.85,0,0,1-1.11.08l-.84-.61-.08.09a1,1,0,0,1-1.08,0A25.13,25.13,0,0,1,75.44,68L75.37,68a9.61,9.61,0,0,0-1.07-.87,7.57,7.57,0,0,1-1.92-1.86A7.7,7.7,0,0,1,72,64.5a3.31,3.31,0,0,0-.81-1.2c-.69-.64-7.74-6.82-9-7.79S57.75,51,56.83,48.24c-.25-.73-.43-1.31-.58-1.79a6.47,6.47,0,0,0-1.06-2.4,13.67,13.67,0,0,1-1.61-2.62A15.5,15.5,0,0,1,52.11,44a5.58,5.58,0,0,0-.78,2.71c0,.6-.1,1.56-.2,2.66a37.17,37.17,0,0,0-.27,5.27,34.14,34.14,0,0,0,.9,4.92l.14.56c.48,2.09,2.36,13.85,2.15,20.76A36.49,36.49,0,0,1,52.1,92.11,8.73,8.73,0,0,0,51.61,94c0,.37,0,.72,0,1.06a10.57,10.57,0,0,0,.1,3l.14.51c.4,1.39,1.13,4-.11,9.19a79,79,0,0,0-1.57,16,.7.7,0,0,0,.06.24,2.47,2.47,0,0,1,.35,1.82,2.93,2.93,0,0,0,.69,1.68,6.82,6.82,0,0,1,.94,1.89,2.37,2.37,0,0,0,1,1.24,1.79,1.79,0,0,1,.93,1.86,1.47,1.47,0,0,1-1.1.81,14.07,14.07,0,0,1-3.46.16,5.48,5.48,0,0,0-1.17,0,2.88,2.88,0,0,1-2.19-.2,1.48,1.48,0,0,1-.61-1.16,15,15,0,0,1,.21-3,14.05,14.05,0,0,0,.16-1.5,7.57,7.57,0,0,0-.12-1.3,7.16,7.16,0,0,1-.1-1.73c0-.11,0-.32,0-.32a21.24,21.24,0,0,0-.23-6.92c-.1-.31-2.59-8.14-2.44-12.31a27.83,27.83,0,0,1,.57-4.43,8.56,8.56,0,0,0,.13-4.21C43,94,42.19,86.31,42.3,81a30.43,30.43,0,0,0-.62-6.57,26.52,26.52,0,0,1-.54-4.35,25.55,25.55,0,0,1-.51,4.35A29.74,29.74,0,0,0,40,81c.11,5.32-.74,13-1.48,15.34a8.45,8.45,0,0,0,.14,4.21,29.17,29.17,0,0,1,.56,4.43c.16,4.17-2.33,12-2.44,12.33a21.08,21.08,0,0,0-.22,6.91s0,.21,0,.31a7.71,7.71,0,0,1-.11,1.73,7.57,7.57,0,0,0-.12,1.3c0,.41.09.94.16,1.5a15,15,0,0,1,.21,3,1.5,1.5,0,0,1-.6,1.16A2.16,2.16,0,0,1,34.93,133.54Zm6.22-64.65a.51.51,0,0,1,.39.16.56.56,0,0,1,.1.37,23.78,23.78,0,0,0,.53,4.92A30.36,30.36,0,0,1,42.8,81c-.1,5.28.73,12.88,1.46,15.18a8.83,8.83,0,0,1-.12,4.46,28.33,28.33,0,0,0-.56,4.35c-.15,4.08,2.39,12.07,2.42,12.15a21.32,21.32,0,0,1,.24,7.15s0,.19-.05.28a7.36,7.36,0,0,0,.11,1.61,9.32,9.32,0,0,1,.12,1.39c0,.43-.09,1-.16,1.55a14.17,14.17,0,0,0-.21,2.89,1,1,0,0,0,.39.79,2.42,2.42,0,0,0,1.78.13,4.88,4.88,0,0,1,1.32,0,13.47,13.47,0,0,0,3.34-.15,1.06,1.06,0,0,0,.71-.45c.11-.66-.25-.94-.75-1.33a2.79,2.79,0,0,1-1.16-1.52,6.34,6.34,0,0,0-.88-1.74,3.26,3.26,0,0,1-.77-2,1.94,1.94,0,0,0-.28-1.5,1.22,1.22,0,0,1-.13-.47A79.79,79.79,0,0,1,51.2,107.6c1.21-5.1.5-7.6.12-8.94a5.44,5.44,0,0,1-.14-.54A10.83,10.83,0,0,1,51.06,95c0-.33,0-.68,0-1a8.69,8.69,0,0,1,.52-2,36.15,36.15,0,0,0,1.92-11.12c.2-6.87-1.66-18.55-2.14-20.63l-.13-.57a32.26,32.26,0,0,1-.92-5,38.83,38.83,0,0,1,.27-5.35c.1-1.09.19-2,.2-2.62a5.8,5.8,0,0,1,.87-3,15.29,15.29,0,0,0,1.65-3l.22-.57.24.57a13.76,13.76,0,0,0,1.77,3,6.9,6.9,0,0,1,1.15,2.56c.15.48.33,1.05.57,1.78.91,2.72,4.05,6.16,5.19,7s8.33,7.17,9,7.81a3.81,3.81,0,0,1,.92,1.36c.11.22.22.45.36.69a6.94,6.94,0,0,0,1.77,1.69,9.79,9.79,0,0,1,1.13.92l.08.07c.24.21,1.76,1.38,2,1.49a.68.68,0,0,0,.52.06.13.13,0,0,0,0-.13l-.06-.57.46.34,1.12.83a.39.39,0,0,0,.46,0,.5.5,0,0,0,.07-.2l.07-.42.34.27c.38.32.53.26.62.18s-.08-.46-.21-.62l-.63-.79.93.4a.26.26,0,0,0,.26,0,.45.45,0,0,0,0-.42,11.86,11.86,0,0,0-1.1-1.84c-.38-.53-1-1.37-1.47-1.9L79,64c-.37-.47-1.11-1.6-1.14-1.65s-.24-.37-.09-.58.47-.16.92-.06a6.23,6.23,0,0,0,2.17.12c.33-.09.51-.24.5-.4s-.15-.3-.59-.29a7.82,7.82,0,0,1-2.93-.55,6.16,6.16,0,0,0-3-.24,1.36,1.36,0,0,1-1.23-.23,24.47,24.47,0,0,1-6.25-8.83c-1.63-4.36-3.53-5.91-4.55-6.74l-.2-.17a2.67,2.67,0,0,1-.92-2.12,15.44,15.44,0,0,0-2.58-8.11,2.62,2.62,0,0,1-.24-.38,6.75,6.75,0,0,1-.54-2.55c-.15-4.61-1-6-4.33-7.16a20.5,20.5,0,0,0-2.32-.65,5.9,5.9,0,0,1-2-.73A16.06,16.06,0,0,0,46.06,21c-.63-.21-1-.34-1.1-.77a18.56,18.56,0,0,1,0-2.92l0-.11a8.62,8.62,0,0,0,1-2.68l0-.25.24,0s.86.06,1.08-1.51c0-.33.1-.65.15-.95.12-.68.29-1.7.12-1.83,0,0-.1,0-.29.06l-.42.19L47,9.78s.68-4.25-.75-6.47S43.74.57,41.15.5h0c-2.57.06-3.7.7-5.06,2.81s-.76,6.42-.75,6.47l.08.45L35,10c-.19-.08-.28-.07-.29-.06-.17.13,0,1.15.12,1.83.05.3.1.62.15.95.23,1.57,1,1.51,1.08,1.51l.24,0,0,.24a6.07,6.07,0,0,0,1,2.43l0,.06v.08a20.19,20.19,0,0,1,0,3.14c-.09.43-.47.56-1.1.77a16.26,16.26,0,0,0-3.65,1.74,5.93,5.93,0,0,1-2,.73,20.53,20.53,0,0,0-2.33.65c-3.33,1.14-4.18,2.55-4.32,7.17a6.84,6.84,0,0,1-.55,2.54,2.62,2.62,0,0,1-.24.38,15.48,15.48,0,0,0-2.58,8.15,2.64,2.64,0,0,1-.92,2.08l-.2.17c-1,.83-2.92,2.38-4.55,6.74a24.5,24.5,0,0,1-6.26,8.84,1.37,1.37,0,0,1-1.22.22,6.16,6.16,0,0,0-3,.24,7.79,7.79,0,0,1-2.93.55c-.43,0-.58.18-.59.29s.18.31.5.4a6.3,6.3,0,0,0,2.18-.12c.44-.1.76-.17.92.06s0,.47-.1.58S3.67,63.56,3.3,64l-.19.24c-.41.53-1.08,1.37-1.47,1.9A12.73,12.73,0,0,0,.54,68a.45.45,0,0,0,0,.42.27.27,0,0,0,.27,0l.93-.4-.64.79c-.13.16-.33.51-.2.62s.23.14.61-.17L1.85,69l.08.42a.48.48,0,0,0,.08.2.38.38,0,0,0,.46,0l1.11-.83.5-.37-.1.61a.15.15,0,0,0,0,.12.74.74,0,0,0,.52-.06c.22-.11,1.75-1.28,2-1.49l.06-.06a11.33,11.33,0,0,1,1.15-.93A7.09,7.09,0,0,0,9.5,65a5.75,5.75,0,0,0,.36-.69,3.94,3.94,0,0,1,.92-1.36c.69-.64,7.77-6.84,9-7.81s4.27-4.32,5.18-7c.25-.73.43-1.3.58-1.78a6.68,6.68,0,0,1,1.14-2.56,13.38,13.38,0,0,0,1.77-3l.24-.57.23.57a14.14,14.14,0,0,0,1.64,3,6,6,0,0,1,.88,3c0,.59.09,1.53.19,2.62a37.31,37.31,0,0,1,.27,5.35,33.38,33.38,0,0,1-.91,5l-.14.57c-.48,2.08-2.34,13.76-2.13,20.63A35.93,35.93,0,0,0,30.67,92a8.69,8.69,0,0,1,.52,2c0,.36,0,.71,0,1a10.84,10.84,0,0,1-.11,3.09q-.06.24-.15.54c-.38,1.34-1.09,3.84.12,8.94a79.79,79.79,0,0,1,1.58,16.14,1.2,1.2,0,0,1-.12.45,2,2,0,0,0-.29,1.52,3.2,3.2,0,0,1-.77,2,6.75,6.75,0,0,0-.87,1.74A2.8,2.8,0,0,1,29.46,131c-.49.39-.86.67-.75,1.33a1.06,1.06,0,0,0,.71.45,13.49,13.49,0,0,0,3.34.15,5,5,0,0,1,1.33,0,2.4,2.4,0,0,0,1.77-.13,1,1,0,0,0,.39-.79,14.9,14.9,0,0,0-.2-2.89,15.15,15.15,0,0,1-.17-1.55,9.32,9.32,0,0,1,.12-1.39,6.79,6.79,0,0,0,.11-1.61c0-.09,0-.27,0-.27a21.28,21.28,0,0,1,.24-7.14c0-.1,2.57-8.09,2.42-12.17a29.76,29.76,0,0,0-.55-4.35A9,9,0,0,1,38,96.18c.73-2.3,1.57-9.9,1.46-15.18a30.36,30.36,0,0,1,.63-6.66,23.85,23.85,0,0,0,.53-5h0a.46.46,0,0,1,.49-.5Z"/><path class="cls-2" d="M33,59.67s7.28,5.84,7.28,7.1a45.11,45.11,0,0,1-1.39,9.71S39.44,69.25,33,59.67Z"/><path class="cls-2" d="M32.43,60.3S30.6,70.69,34.55,88.16A25.76,25.76,0,0,0,37.69,74C37.3,70.05,32.43,60.3,32.43,60.3Z"/><path class="cls-2" d="M30.75,68s.61,13.7,3.08,21.65c0,0,.64,1.19-1.08,3.7-.77,1.12-2.19-1.92-2.91-7S30.75,68,30.75,68Z"/><path class="cls-2" d="M38.78,77.54s-1.28,8.08-3,10.89a4,4,0,0,0,.59,5.34C37.25,94.36,39.66,91.52,38.78,77.54Z"/><path class="cls-2" d="M37.25,98.29a21.65,21.65,0,0,1,1.06,8.48c-.37,3.28-3.53,14.66-3.53,14.66S35.66,111.29,37.25,98.29Z"/><path class="cls-2" d="M32.21,96.37s-2,5.12-1.05,8.95a67.36,67.36,0,0,1,2.37,16.62A56.9,56.9,0,0,0,34,108.37C33.63,103.55,33.41,99.43,32.21,96.37Z"/><path class="cls-2" d="M37.82,94.21a11.67,11.67,0,0,0-1.35,4.05c-.2,2-1.49,7.42-1.49,7.42a64.68,64.68,0,0,0,.26-7.47C35,96.27,37.82,94.21,37.82,94.21Z"/><path class="cls-2" d="M32.7,94.63a7.36,7.36,0,0,0,1,2.06c.44.33,1.2-.35,1.82-1.9s-2.3-1-2.49-1A.58.58,0,0,0,32.7,94.63Z"/><path class="cls-2" d="M34.67,130.66l-.33,1.63c-.06.24.26.49.71.49s1-.08.92-.66a7.61,7.61,0,0,0-.21-1C35.71,131,35.11,130.36,34.67,130.66Z"/><path class="cls-2" d="M34,130.48s-.18,1.74-.63,2a10,10,0,0,1-3.9,0c-.72-.29.64-1.2.89-1.39a4.23,4.23,0,0,0,.69-1.63C31.13,129,31.45,128.9,34,130.48Z"/><path class="cls-2" d="M35.76,130.16A30.5,30.5,0,0,0,32,128.35s-.31-.16,0-.58a7.22,7.22,0,0,0,.73-2.17c0-.38,2.78,1.93,3.12,3A4.45,4.45,0,0,1,35.76,130.16Z"/><path class="cls-2" d="M35.41,126.6l-2.12-1.91c-.46-.42-.25-1.66.19-1.47s2.1.44,2.17.72S35.75,126.77,35.41,126.6Z"/><path class="cls-2" d="M49.34,59.67s-7.28,5.84-7.28,7.1a45.11,45.11,0,0,0,1.39,9.71S42.92,69.25,49.34,59.67Z"/><path class="cls-2" d="M49.93,60.3s1.84,10.39-2.12,27.86A25.76,25.76,0,0,1,44.67,74C45.06,70.05,49.93,60.3,49.93,60.3Z"/><path class="cls-2" d="M51.61,68S51,81.73,48.53,89.68c0,0-.64,1.19,1.08,3.7.77,1.12,2.19-1.92,2.91-7S51.61,68,51.61,68Z"/><path class="cls-2" d="M43.59,77.54s1.27,8.08,3,10.89A4,4,0,0,1,46,93.77C45.11,94.36,42.7,91.52,43.59,77.54Z"/><path class="cls-2" d="M45.11,98.29a21.53,21.53,0,0,0-1,8.48c.36,3.28,3.52,14.66,3.52,14.66S46.7,111.29,45.11,98.29Z"/><path class="cls-2" d="M50.15,96.37s2,5.12,1.05,8.95a67.36,67.36,0,0,0-2.37,16.62,56.9,56.9,0,0,1-.42-13.57C48.73,103.55,49,99.43,50.15,96.37Z"/><path class="cls-2" d="M44.55,94.21a11.76,11.76,0,0,1,1.34,4.05c.2,2,1.49,7.42,1.49,7.42a64.68,64.68,0,0,1-.26-7.47C47.33,96.27,44.55,94.21,44.55,94.21Z"/><path class="cls-2" d="M49.66,94.63a7.36,7.36,0,0,1-1,2.06c-.44.33-1.2-.35-1.82-1.9s2.3-1,2.49-1A.57.57,0,0,1,49.66,94.63Z"/><path class="cls-2" d="M47.69,130.66l.33,1.63c.06.24-.26.49-.71.49s-1-.08-.92-.66a7.61,7.61,0,0,1,.21-1C46.65,131,47.25,130.36,47.69,130.66Z"/><path class="cls-2" d="M48.35,130.48s.19,1.74.63,2a10,10,0,0,0,3.9,0c.72-.29-.64-1.2-.89-1.39a4.23,4.23,0,0,1-.69-1.63C51.23,129,50.91,128.9,48.35,130.48Z"/><path class="cls-2" d="M46.6,130.16a30.5,30.5,0,0,1,3.78-1.81s.31-.16,0-.58a7.22,7.22,0,0,1-.73-2.17c0-.38-2.77,1.93-3.12,3A4.45,4.45,0,0,0,46.6,130.16Z"/><path class="cls-2" d="M47,126.6l2.11-1.91c.46-.42.26-1.66-.19-1.47s-2.1.44-2.17.72S46.61,126.77,47,126.6Z"/><path class="cls-2" d="M24.51,31.93s-.26-3.6.9-5.26,3.06-2.35,5-2.84A17.3,17.3,0,0,0,24.51,31.93Z"/><path class="cls-2" d="M31,24.09a23.15,23.15,0,0,0-6.44,9.14,37.29,37.29,0,0,0,5.06-4.17C31.51,27,31.78,25.36,31,24.09Z"/><path class="cls-2" d="M26.75,32.4s-3.91,2-4.78,5.08c-1.51,5.37-.28,8.43-.39,9.26h0a27.24,27.24,0,0,0,3.59-4.49C26.93,39,28.16,35.83,26.75,32.4Z"/><path class="cls-2" d="M27.88,36.35s0,3.91-3.61,8.29a5.52,5.52,0,0,0,3.16-2.56C28.77,39.91,27.88,36.35,27.88,36.35Z"/><path class="cls-2" d="M20.72,44.64s.72,2.86-.44,4.59S17,54.78,9.5,60.3A20.09,20.09,0,0,0,14.22,54c1-2.29,1.62-4.48,3.17-6.32A18.65,18.65,0,0,1,20.72,44.64Z"/><path class="cls-2" d="M11.2,61.3s9.34-6.69,11.94-10.37S25,45,25,45a9.55,9.55,0,0,0-3,2.21c-.87,1.19-1.47,3.14-3.54,5.92A105.36,105.36,0,0,1,11.2,61.3Z"/><path class="cls-2" d="M7.52,61s-1-.32-2,.92A12.76,12.76,0,0,0,3.7,64.35c0,.38.17,1,1.23,1.39s1.78,1.16,3.14,0A3.68,3.68,0,0,0,9.75,63C9.75,62.31,8.53,61.21,7.52,61Z"/><path class="cls-2" d="M6.4,60.61s-1.21.47-1.58.69c-.54.31-3.13.77-3.51.39-.11-.12-.12-.22-.09-.29s.35-.16.54-.16a9.82,9.82,0,0,0,2.32-.31A4.5,4.5,0,0,1,6.4,60.61Z"/><path class="cls-2" d="M2.83,65S1.7,66.32,1.4,66.8.5,68.1.72,68.36,1.5,67.73,2,67.17c.29-.34,1.06-1.23,1.2-1.45S3.39,65.27,2.83,65Z"/><path class="cls-2" d="M3.7,65.78S2.45,67.25,2,67.71A16.08,16.08,0,0,0,1,69.11a.29.29,0,0,0,0,.37c.11.09.33,0,.62-.25s2.34-2.53,2.48-2.7c0,0,.3-.31.11-.4A1.79,1.79,0,0,1,3.7,65.78Z"/><path class="cls-2" d="M4.75,66.35S3.23,68.07,3,68.26s-.68.69-.76.8-.28.38-.09.54.5-.06.84-.36,1.54-1.47,1.84-1.76a7,7,0,0,0,.67-.74C5.62,66.57,5.26,66.76,4.75,66.35Z"/><path class="cls-2" d="M6,66.91s-.89.91-1.21,1.22-.84.76-.64,1,1.13-.56,1.45-.82a12.44,12.44,0,0,0,1.21-1.17C7,66.88,6.77,67.2,6,66.91Z"/><path class="cls-2" d="M8.8,61s.95.64,1.14,1.09,1-1.29,1.72-2.07S11.18,60.05,8.8,61Z"/><path class="cls-2" d="M32.4,24.1c3.8-.26,6.85.47,6.59,0-1.14-1.85-2-3.09-2-3.09a15.66,15.66,0,0,0-4.51,2.31S31.3,24.18,32.4,24.1Z"/><path class="cls-2" d="M40.71,25a8.5,8.5,0,0,1-3-6.48s1.3.71,1.39,1A20.93,20.93,0,0,0,40.71,25Z"/><path class="cls-2" d="M41,19.33c1,0,1.38-.07,1.32.58a36.56,36.56,0,0,1-1.13,3.74h-.09A36.22,36.22,0,0,1,40,19.91c-.06-.65.35-.58,1.33-.58Z"/><path class="cls-2" d="M40.2,40.4a4.88,4.88,0,0,0,0-2.06c-.25-1-1.4-.83-2.9-.34s-2.16,2.39-2.36,4C34.93,42,37.83,39.87,40.2,40.4Z"/><path class="cls-2" d="M38.57,41.57a6.84,6.84,0,0,0-2.83,1.22A1.52,1.52,0,0,0,35,44.26c.07.77.11,1.76.11,1.76a14.78,14.78,0,0,1,5.15-.77,20.65,20.65,0,0,0,0-2.8C40.12,41.6,39.27,41.5,38.57,41.57Z"/><path class="cls-2" d="M35.34,47.67a.79.79,0,0,1,.58-.82,16.45,16.45,0,0,1,3.9-.5s.44,0,.48.61c.06.77.13,3.76.13,3.76S35.4,51.4,35.34,47.67Z"/><path class="cls-2" d="M35.74,50.77s1.14,1.21,4.14,1.17a.69.69,0,0,1,.67.73c.06,1,0,10.4,0,10.4S36.32,62.13,35.74,50.77Z"/><path class="cls-2" d="M28.05,33.51S29.28,40.8,31,42.8A14.55,14.55,0,0,1,30.58,38C30.93,36.15,30.62,36.6,28.05,33.51Z"/><path class="cls-2" d="M31.4,42a4.79,4.79,0,0,0,1.78.66c.91.1.94,1.22.26,1.24S31.8,43.56,31.4,42Z"/><path class="cls-2" d="M31.33,39.54a5.12,5.12,0,0,0,1.93.62c1,.06,1,1.24.3,1.28S31.79,41.17,31.33,39.54Z"/><path class="cls-2" d="M31.45,37.11a5.82,5.82,0,0,0,2.08.68c1.08.1,1,1.27.24,1.29A2.24,2.24,0,0,1,31.45,37.11Z"/><path class="cls-2" d="M31.72,44.53a3.07,3.07,0,0,0,1.65.65s.28,0,.38.44-.45.67-.88.6S31.87,45.69,31.72,44.53Z"/><path class="cls-2" d="M32.17,47.1a3.85,3.85,0,0,1,2,2.53c.26,1.68.63,8.16,1.67,10.67,0,0-2.75-1.23-3.16-3.33S33,53.07,32.17,47.1Z"/><path class="cls-3" d="M34.17,24.87a31.34,31.34,0,0,1,4.81.25s1.4.17,1.46,2.2c0,1.7.35,4.58,0,6.26s-.56,3.87-5.46,3.12a9.89,9.89,0,0,1-7.15-4.91,11.82,11.82,0,0,0,3.07-3C32,27,32.1,24.91,34.17,24.87Z"/><path class="cls-2" d="M57.79,31.93s.26-3.6-.9-5.26-3.06-2.35-5-2.84A17.3,17.3,0,0,1,57.79,31.93Z"/><path class="cls-2" d="M51.35,24.09a23,23,0,0,1,6.44,9.14,37.49,37.49,0,0,1-5-4.17C50.79,27,50.52,25.36,51.35,24.09Z"/><path class="cls-2" d="M55.55,32.4s3.91,2,4.78,5.08c1.52,5.37.28,8.43.39,9.26h0a27.8,27.8,0,0,1-3.59-4.49C55.37,39,54.14,35.83,55.55,32.4Z"/><path class="cls-2" d="M54.42,36.35s0,3.91,3.61,8.29a5.52,5.52,0,0,1-3.16-2.56C53.53,39.91,54.42,36.35,54.42,36.35Z"/><path class="cls-2" d="M61.59,44.64s-.73,2.86.43,4.59S65.31,54.78,72.8,60.3A20,20,0,0,1,68.09,54c-1-2.29-1.63-4.48-3.18-6.32A18.41,18.41,0,0,0,61.59,44.64Z"/><path class="cls-2" d="M71.1,61.3s-9.33-6.69-11.93-10.37S57.29,45,57.29,45a9.55,9.55,0,0,1,3,2.21c.87,1.19,1.48,3.14,3.54,5.92A107.64,107.64,0,0,0,71.1,61.3Z"/><path class="cls-2" d="M74.78,61s1-.32,2,.92a12.31,12.31,0,0,1,1.79,2.47c0,.38-.16,1-1.23,1.39s-1.78,1.16-3.14,0S72.56,63.72,72.56,63,73.77,61.21,74.78,61Z"/><path class="cls-2" d="M75.9,60.61s1.21.47,1.58.69c.54.31,3.13.77,3.51.39.11-.12.12-.22.09-.29s-.35-.16-.54-.16a9.88,9.88,0,0,1-2.32-.31A4.5,4.5,0,0,0,75.9,60.61Z"/><path class="cls-2" d="M79.48,65s1.13,1.33,1.43,1.81.9,1.3.67,1.56-.77-.63-1.24-1.19c-.28-.34-1.06-1.23-1.19-1.45S78.92,65.27,79.48,65Z"/><path class="cls-2" d="M78.61,65.78l1.65,1.93c.41.47,1,1.3,1.08,1.4a.29.29,0,0,1,0,.37c-.11.09-.33,0-.62-.25s-2.33-2.53-2.48-2.7c0,0-.29-.31-.11-.4A2,2,0,0,0,78.61,65.78Z"/><path class="cls-2" d="M77.55,66.35s1.52,1.72,1.72,1.91.68.69.76.8.28.38.09.54-.49-.06-.84-.36-1.54-1.47-1.83-1.76a6,6,0,0,1-.67-.74C76.68,66.57,77.05,66.76,77.55,66.35Z"/><path class="cls-2" d="M76.27,66.91s.88.91,1.21,1.22.83.76.63,1-1.13-.56-1.45-.82a11.23,11.23,0,0,1-1.2-1.17C75.28,66.88,75.53,67.2,76.27,66.91Z"/><path class="cls-2" d="M73.51,61s-1,.64-1.15,1.09-1-1.29-1.72-2.07S71.12,60.05,73.51,61Z"/><path class="cls-2" d="M49.9,24.1c-3.8-.26-6.85.47-6.58,0,1.13-1.85,1.94-3.09,1.94-3.09a15.66,15.66,0,0,1,4.51,2.31S51,24.18,49.9,24.1Z"/><path class="cls-2" d="M41.59,25a8.47,8.47,0,0,0,2.95-6.48s-1.29.66-1.38,1A20.59,20.59,0,0,1,41.59,25Z"/><path class="cls-2" d="M42.05,40.4a4.88,4.88,0,0,1,0-2.06c.25-1,1.4-.83,2.9-.34s2.16,2.39,2.36,4C47.32,42,44.42,39.87,42.05,40.4Z"/><path class="cls-2" d="M43.67,41.57a6.82,6.82,0,0,1,2.84,1.22,1.52,1.52,0,0,1,.75,1.47c-.07.77-.11,1.76-.11,1.76A14.84,14.84,0,0,0,42,45.25a20.65,20.65,0,0,1,0-2.8C42.12,41.6,43,41.5,43.67,41.57Z"/><path class="cls-2" d="M46.91,47.67a.79.79,0,0,0-.58-.82,16.45,16.45,0,0,0-3.9-.5s-.44,0-.48.61c-.06.77-.13,3.76-.13,3.76S46.85,51.4,46.91,47.67Z"/><path class="cls-2" d="M46.5,50.77S45.37,52,42.37,51.94a.69.69,0,0,0-.67.73c-.06,1,0,10.4,0,10.4S45.93,62.13,46.5,50.77Z"/><path class="cls-2" d="M54.26,33.51S53,40.8,51.34,42.8A14.26,14.26,0,0,0,51.72,38C51.37,36.15,51.68,36.6,54.26,33.51Z"/><path class="cls-2" d="M50.9,42a4.79,4.79,0,0,1-1.78.66c-.91.1-.94,1.22-.26,1.24S50.5,43.56,50.9,42Z"/><path class="cls-2" d="M51,39.54a5.2,5.2,0,0,1-1.94.62c-1,.06-1,1.24-.3,1.28S50.52,41.17,51,39.54Z"/><path class="cls-2" d="M50.86,37.11a5.92,5.92,0,0,1-2.09.68c-1.08.1-1,1.27-.23,1.29A2.25,2.25,0,0,0,50.86,37.11Z"/><path class="cls-2" d="M50.58,44.53a3.07,3.07,0,0,1-1.65.65s-.27,0-.38.44.46.67.88.6S50.44,45.69,50.58,44.53Z"/><path class="cls-2" d="M50.13,47.1a3.85,3.85,0,0,0-2,2.53c-.26,1.68-.62,8.16-1.67,10.67,0,0,2.76-1.23,3.17-3.33S49.34,53.07,50.13,47.1Z"/><path class="cls-3" d="M48.13,24.87a31.34,31.34,0,0,0-4.81.25s-1.4.17-1.45,2.2c0,1.7-.36,4.58.05,6.26s.44,3.88,5.35,3.14a10.27,10.27,0,0,0,7.26-4.93,11.78,11.78,0,0,1-3.08-3C50.29,27,50.2,24.91,48.13,24.87Z"/></g></g></svg>