<svg xmlns="http://www.w3.org/2000/svg" viewBox="0 0 82.3 133.54"><defs><style>.cls-1{fill:#afafaf;}.cls-2{fill:#bababa;}.cls-3{fill:#ff485e;}</style></defs><g id="Layer_2" data-name="Layer 2"><g id="Layer_1-2" data-name="Layer 1"><path class="cls-1" d="M50.56,133.54c-2.94,0-4.38,0-4.76-.42-.2-.19-.81-1-.39-3l.18-.85A15.82,15.82,0,0,0,46,126.7a6.81,6.81,0,0,1-.18-2.34c.06-.63.08-2.35.08-2.87a17.64,17.64,0,0,0-.41-4.21c-.1-.31-2.59-8.14-2.44-12.31a27.83,27.83,0,0,1,.57-4.43,8.56,8.56,0,0,0,.13-4.21C43,94,42.2,86.31,42.3,81a30.43,30.43,0,0,0-.62-6.57,26.52,26.52,0,0,1-.54-4.35,25.55,25.55,0,0,1-.51,4.35A29.74,29.74,0,0,0,40,81c.11,5.32-.74,13-1.48,15.34a8.45,8.45,0,0,0,.14,4.21,29.17,29.17,0,0,1,.56,4.43c.16,4.17-2.33,12-2.44,12.33a18.83,18.83,0,0,0-.39,5s0,1.37,0,2.1a6.75,6.75,0,0,1-.18,2.34,14.4,14.4,0,0,0,.43,2.55l.18.85c.43,2-.19,2.83-.39,3-.38.38-1.81.42-4.76.42a10.87,10.87,0,0,1-3.49-.28,1,1,0,0,1-.41-1,.81.81,0,0,1,.43-.78l.09,0a3.27,3.27,0,0,0,1.63-1.1,8.6,8.6,0,0,0,.77-1.61,5.79,5.79,0,0,1,.55-1.16l.21-.28a1.07,1.07,0,0,0,.35-.89,4,4,0,0,1,.21-1.68h0a3.26,3.26,0,0,0,.11-.71,80.18,80.18,0,0,0-1.54-16.34c-1.24-5.22-.5-7.8-.11-9.19.06-.19.1-.36.14-.51a10.57,10.57,0,0,0,.1-3c0-.34,0-.69,0-1.06a8.73,8.73,0,0,0-.49-1.89,36.34,36.34,0,0,1-1.94-11.27c-.21-6.91,1.66-18.67,2.15-20.76l.13-.57a32.83,32.83,0,0,0,.91-4.91,40.4,40.4,0,0,0-.27-5.27c-.11-1.1-.2-2.06-.2-2.66A5.53,5.53,0,0,0,30.19,44a15.5,15.5,0,0,1-1.47-2.53,14.16,14.16,0,0,1-1.6,2.62,6.3,6.3,0,0,0-1.07,2.4c-.15.48-.33,1.06-.58,1.79-.92,2.76-4,6.25-5.35,7.27s-8.31,7.15-9,7.79a3.44,3.44,0,0,0-.81,1.2,7.49,7.49,0,0,1-.38.74A7.43,7.43,0,0,1,8,67.1,11.06,11.06,0,0,0,6.92,68L6.86,68a24.41,24.41,0,0,1-2.1,1.57,1,1,0,0,1-1.09,0l-.08-.09-.83.61A.86.86,0,0,1,1.64,70l-.08-.1a.79.79,0,0,1-1,0A.75.75,0,0,1,.47,69a.84.84,0,0,1-.24-.14.87.87,0,0,1-.15-1,11.65,11.65,0,0,1,1.16-2c.4-.54,1.09-1.42,1.5-1.94l.17-.21c.31-.39.9-1.29,1.07-1.55l-.25.06a6.64,6.64,0,0,1-2.42.11c-.85-.23-.88-.76-.86-.92s.3-.76,1.1-.75a7.2,7.2,0,0,0,2.72-.51,6.69,6.69,0,0,1,3.26-.27.93.93,0,0,0,.79-.1,24,24,0,0,0,6.13-8.64c1.67-4.49,3.71-6.16,4.69-7l.2-.16a2.18,2.18,0,0,0,.74-1.7,16,16,0,0,1,2.67-8.43c.1-.14.17-.25.21-.32a6.36,6.36,0,0,0,.49-2.33c.15-4.79,1.15-6.43,4.66-7.63A22.38,22.38,0,0,1,30.48,23a5.08,5.08,0,0,0,1.85-.67,16.54,16.54,0,0,1,3.75-1.78c.56-.19.75-.26.77-.4a19.3,19.3,0,0,0,0-3,6.8,6.8,0,0,1-1-2.39c-.4-.06-1.16-.39-1.38-1.93-.05-.32-.1-.64-.15-.94-.21-1.2-.34-2,.06-2.31a.61.61,0,0,1,.4-.11c-.13-1.12-.4-4.43.88-6.43,1.45-2.26,2.73-3,5.48-3s4.08.78,5.52,3c1.28,2,1,5.31.88,6.43a.61.61,0,0,1,.4.11c.41.32.27,1.11.07,2.31,0,.3-.11.61-.15.94-.22,1.54-1,1.87-1.39,1.93a8.93,8.93,0,0,1-1,2.61,15.58,15.58,0,0,0,0,2.73c0,.14.21.21.77.4A16.55,16.55,0,0,1,50,22.28a5.1,5.1,0,0,0,1.84.67,22.38,22.38,0,0,1,2.37.67c3.51,1.2,4.51,2.84,4.67,7.62a6.36,6.36,0,0,0,.49,2.34,3.33,3.33,0,0,0,.2.32,15.88,15.88,0,0,1,2.67,8.39A2.2,2.2,0,0,0,63,44l.2.16c1,.8,3,2.47,4.7,7A24.17,24.17,0,0,0,74,59.79a.94.94,0,0,0,.79.1,6.69,6.69,0,0,1,3.26.27,7.23,7.23,0,0,0,2.72.51c.81,0,1.09.48,1.11.75s0,.69-.87.92a6.59,6.59,0,0,1-2.41-.11l-.25-.06c.16.26.76,1.16,1.06,1.55l.17.21c.41.52,1.11,1.4,1.5,1.94a12.56,12.56,0,0,1,1.17,2,.87.87,0,0,1-.16,1,.72.72,0,0,1-.24.14.74.74,0,0,1-.11.92.78.78,0,0,1-1,0l-.08.1a.85.85,0,0,1-1.11.08l-.84-.61-.08.09a1,1,0,0,1-1.08,0A25.74,25.74,0,0,1,75.44,68l0,0a9.08,9.08,0,0,0-1.09-.88A5.59,5.59,0,0,1,72,64.5a3.31,3.31,0,0,0-.81-1.2c-.69-.64-7.73-6.82-9-7.79S57.75,51,56.83,48.24c-.25-.73-.43-1.31-.58-1.78a6.3,6.3,0,0,0-1.06-2.41,13.67,13.67,0,0,1-1.61-2.62A15.5,15.5,0,0,1,52.11,44a5.58,5.58,0,0,0-.78,2.71c0,.6-.1,1.56-.2,2.66a37.17,37.17,0,0,0-.27,5.27,33.05,33.05,0,0,0,.91,4.93l.13.55c.48,2.1,2.36,13.85,2.15,20.76A36.56,36.56,0,0,1,52.1,92.11,8,8,0,0,0,51.62,94c0,.36,0,.72-.06,1.06a10.57,10.57,0,0,0,.1,3l.14.51c.4,1.39,1.13,4-.11,9.19a76.79,76.79,0,0,0-1.55,13.71l0,.2c0,1.3,0,2.11,0,2.43a3.46,3.46,0,0,0,.11.72,4,4,0,0,1,.2,1.67,1.05,1.05,0,0,0,.36.89c.06.09.14.18.21.28a6.49,6.49,0,0,1,.54,1.16,10.06,10.06,0,0,0,.77,1.61,3.22,3.22,0,0,0,1.64,1.1l.09,0a.83.83,0,0,1,.43.78,1,1,0,0,1-.41,1A10.91,10.91,0,0,1,50.56,133.54ZM41.15,68.89a.49.49,0,0,1,.39.16.55.55,0,0,1,.1.37,24.48,24.48,0,0,0,.53,4.92A30.36,30.36,0,0,1,42.8,81c-.1,5.28.73,12.88,1.46,15.18a8.83,8.83,0,0,1-.12,4.46,28.33,28.33,0,0,0-.56,4.35c-.15,4.08,2.39,12.07,2.42,12.15a18.53,18.53,0,0,1,.43,4.36c0,.52,0,2.26-.09,2.91a6.7,6.7,0,0,0,.17,2.17,10.58,10.58,0,0,1-.43,2.77l-.18.85c-.3,1.42,0,2.27.25,2.57s2.77.27,4.41.27a13.75,13.75,0,0,0,3.28-.23.7.7,0,0,0,.13-.5c0-.21-.08-.32-.11-.33l-.09,0a3.77,3.77,0,0,1-1.87-1.29,9.35,9.35,0,0,1-.82-1.71,6.3,6.3,0,0,0-.49-1c-.07-.09-.13-.18-.2-.26a1.6,1.6,0,0,1-.46-1.25,3.54,3.54,0,0,0-.17-1.46,3.47,3.47,0,0,1-.14-.85c0-.45,0-1.47,0-2.67v-.2A77,77,0,0,1,51.2,107.6c1.21-5.1.5-7.6.12-8.94a5.44,5.44,0,0,1-.14-.54A10.83,10.83,0,0,1,51.06,95q0-.51.06-1a8.1,8.1,0,0,1,.51-2,36.15,36.15,0,0,0,1.92-11.12c.2-6.87-1.66-18.55-2.14-20.63l-.13-.56a33.61,33.61,0,0,1-.92-5,38.83,38.83,0,0,1,.27-5.35c.1-1.09.19-2,.2-2.62a5.8,5.8,0,0,1,.87-3,15.29,15.29,0,0,0,1.65-3l.22-.57.24.57a13.76,13.76,0,0,0,1.77,3,6.88,6.88,0,0,1,1.15,2.57c.15.47.33,1,.57,1.77.91,2.72,4.05,6.16,5.19,7s8.34,7.17,9,7.81a3.81,3.81,0,0,1,.92,1.36c.11.22.22.45.36.69a6.94,6.94,0,0,0,1.77,1.69,10.16,10.16,0,0,1,1.15.94l.06,0c.24.21,1.77,1.39,2,1.49a.74.74,0,0,0,.52.06.19.19,0,0,0,0-.13l-.06-.57.45.34,1.12.83a.37.37,0,0,0,.46,0,.5.5,0,0,0,.07-.2l.07-.42.34.27c.38.31.53.25.62.18s-.08-.46-.21-.62l-.63-.79.93.4a.26.26,0,0,0,.26,0h0a.45.45,0,0,0,0-.42,11.86,11.86,0,0,0-1.1-1.84c-.39-.54-1.08-1.41-1.49-1.93L79,64c-.37-.47-1.11-1.6-1.14-1.65s-.24-.37-.09-.58.48-.16.92-.06a6.23,6.23,0,0,0,2.17.12c.33-.09.51-.24.5-.4s-.15-.3-.59-.29a7.79,7.79,0,0,1-2.93-.55,6.16,6.16,0,0,0-3-.24,1.36,1.36,0,0,1-1.23-.23,24.1,24.1,0,0,1-6.25-8.83c-1.62-4.36-3.53-5.91-4.55-6.74l-.2-.17a2.61,2.61,0,0,1-.91-2.12,15.5,15.5,0,0,0-2.59-8.11,4,4,0,0,1-.24-.38,6.72,6.72,0,0,1-.54-2.55c-.15-4.61-1-6-4.33-7.16a20.5,20.5,0,0,0-2.32-.65,5.7,5.7,0,0,1-2-.73A16.06,16.06,0,0,0,46.06,21c-.63-.21-1-.34-1.1-.77a18.56,18.56,0,0,1,0-2.92l0-.11a8.62,8.62,0,0,0,1-2.68l0-.25.24,0s.86.06,1.08-1.51c0-.33.1-.65.16-.95.11-.68.28-1.7.11-1.83,0,0-.09,0-.29.06l-.42.19L47,9.77s.68-4.24-.75-6.46S43.74.57,41.15.5s-3.72.69-5.08,2.81-.76,6.42-.75,6.46l.08.46L35,10c-.19-.08-.28-.07-.29-.06-.17.13,0,1.15.12,1.83.05.3.1.62.15.95.23,1.57,1,1.51,1.08,1.51l.24,0,0,.24a6.07,6.07,0,0,0,1,2.43l0,.06v.08a20.19,20.19,0,0,1,0,3.14c-.09.43-.47.56-1.1.77a16.26,16.26,0,0,0-3.65,1.74,5.72,5.72,0,0,1-2,.73,20.53,20.53,0,0,0-2.33.65c-3.33,1.14-4.18,2.55-4.32,7.17a6.6,6.6,0,0,1-.55,2.54,2.62,2.62,0,0,1-.24.38,15.48,15.48,0,0,0-2.58,8.15,2.64,2.64,0,0,1-.92,2.08l-.2.17c-1,.83-2.92,2.38-4.54,6.74a24.61,24.61,0,0,1-6.27,8.84,1.35,1.35,0,0,1-1.22.22,6.16,6.16,0,0,0-3,.24,7.79,7.79,0,0,1-2.93.55c-.43,0-.58.18-.59.29s.18.31.5.4a6.3,6.3,0,0,0,2.18-.12c.44-.1.76-.17.92.06s0,.47-.1.58S3.67,63.56,3.3,64l-.16.21c-.42.52-1.11,1.39-1.5,1.93A12.73,12.73,0,0,0,.54,68a.45.45,0,0,0,0,.42.25.25,0,0,0,.27,0l.93-.4-.64.79c-.13.16-.33.51-.2.62s.23.14.61-.17l.33-.27.08.41a.48.48,0,0,0,.08.2.38.38,0,0,0,.46,0l1.11-.83.5-.38-.1.62a.15.15,0,0,0,0,.12.73.73,0,0,0,.52-.06c.22-.1,1.75-1.28,2-1.49l.06-.06a11.33,11.33,0,0,1,1.15-.93A7.09,7.09,0,0,0,9.5,65a5.75,5.75,0,0,0,.36-.69,3.94,3.94,0,0,1,.92-1.36c.7-.64,7.78-6.84,9-7.81s4.27-4.32,5.18-7c.25-.72.43-1.3.58-1.78a6.59,6.59,0,0,1,1.15-2.56,13.78,13.78,0,0,0,1.76-3l.24-.57.23.57a14.14,14.14,0,0,0,1.64,3,6,6,0,0,1,.88,3c0,.59.09,1.53.19,2.62a37.31,37.31,0,0,1,.27,5.35,33,33,0,0,1-.91,5l-.14.58c-.48,2.08-2.34,13.76-2.13,20.63A35.93,35.93,0,0,0,30.67,92a8.69,8.69,0,0,1,.52,2c0,.37,0,.71,0,1a10.84,10.84,0,0,1-.11,3.09q-.06.24-.15.54c-.38,1.34-1.09,3.84.12,8.94a81,81,0,0,1,1.55,16.48,3.19,3.19,0,0,1-.14.84,3.77,3.77,0,0,0-.18,1.47,1.54,1.54,0,0,1-.46,1.25l-.2.26a6.42,6.42,0,0,0-.48,1,9.37,9.37,0,0,1-.83,1.71A3.73,3.73,0,0,1,28.49,132l-.08,0s-.11.12-.12.33a.69.69,0,0,0,.14.5,13.71,13.71,0,0,0,3.27.23c1.65,0,4.12,0,4.41-.27s.55-1.15.25-2.57l-.18-.85a10.58,10.58,0,0,1-.43-2.77,6.39,6.39,0,0,0,.17-2.17c-.07-.76,0-2.09,0-2.15a19.29,19.29,0,0,1,.41-5.1c0-.1,2.57-8.09,2.42-12.17a29.76,29.76,0,0,0-.55-4.35A9,9,0,0,1,38,96.18c.74-2.3,1.57-9.91,1.46-15.18a30.36,30.36,0,0,1,.63-6.66,23.87,23.87,0,0,0,.53-5h0a.47.47,0,0,1,.11-.33A.48.48,0,0,1,41.15,68.89Z"/><path class="cls-2" d="M38.81,88.72c.39-1.56,0-8,0-9.72s.87-8.31.87-8.31a6.78,6.78,0,0,1-4.35,1.64s3.23,6,3.44,16.37Z"/><path class="cls-2" d="M34.53,72.38S40,86.1,37,96.07a13.28,13.28,0,0,1-2.31-6.36C34.08,75.81,34.32,75.82,34.53,72.38Z"/><path class="cls-2" d="M33.79,72.52s-.43,5.81-.4,7.18S33.73,90,32,93.25C32,93.25,27.18,75.52,33.79,72.52Z"/><path class="cls-2" d="M30.07,69.34s.7,3.29.21,5.06a38.92,38.92,0,0,0-.64,9.82A42.14,42.14,0,0,1,30.07,69.34Z"/><path class="cls-2" d="M37.63,101a16,16,0,0,1,.6,4c-.16,4.56-.77,6.41-1.8,6.5s-1.67-.7-1.54-5.56c0-1.4,0-2.78,0-4.12a72.71,72.71,0,0,1,.14-8.1,19.77,19.77,0,0,0,1.81,3.15S37.35,99.88,37.63,101Z"/><path class="cls-2" d="M34,108.21c-.06,2.63-1.44,1.11-2,.43s-1.35-3.27-1.13-6.41a19.33,19.33,0,0,1,.93-4.18,8.5,8.5,0,0,0,.47-3.89,5,5,0,0,0,1-2.81S34.3,97.12,34,108.21Z"/><path class="cls-2" d="M37.27,111.57a4.1,4.1,0,0,1-.9.66c-.49.24-1.33.73-1.36,10.37C35,122.6,35.64,114.8,37.27,111.57Z"/><path class="cls-2" d="M33.64,126.15a103,103,0,0,0-1.93-17,4.5,4.5,0,0,1,1,1.35c.18.57,1.42,3.25,1.1,15.34Z"/><path class="cls-2" d="M43.51,88.72c-.4-1.56,0-8,0-9.72s-.86-8.31-.86-8.31A6.77,6.77,0,0,0,47,72.33s-3.22,6-3.44,16.37Z"/><path class="cls-2" d="M47.78,72.38S42.35,86.1,45.31,96.07a13.28,13.28,0,0,0,2.31-6.36C48.23,75.81,48,75.82,47.78,72.38Z"/><path class="cls-2" d="M48.52,72.52s.44,5.81.4,7.18S48.58,90,50.28,93.25C50.28,93.25,55.13,75.52,48.52,72.52Z"/><path class="cls-2" d="M52.24,69.34s-.7,3.29-.2,5.06a39.87,39.87,0,0,1,.64,9.82A42,42,0,0,0,52.24,69.34Z"/><path class="cls-2" d="M44.69,101a16.06,16.06,0,0,0-.61,4c.16,4.56.77,6.41,1.81,6.5s1.67-.7,1.54-5.56c0-1.4,0-2.78,0-4.12a73.82,73.82,0,0,0-.15-8.1,19.51,19.51,0,0,1-1.8,3.15S45,99.88,44.69,101Z"/><path class="cls-2" d="M48.27,108.21c.06,2.63,1.44,1.11,2,.43s1.35-3.27,1.13-6.41a18.75,18.75,0,0,0-.93-4.18A8.5,8.5,0,0,1,50,94.16a5,5,0,0,1-1-2.81S48,97.12,48.27,108.21Z"/><path class="cls-2" d="M45.05,111.57a3.91,3.91,0,0,0,.89.66c.49.24,1.34.73,1.36,10.37C47.3,122.6,46.67,114.8,45.05,111.57Z"/><path class="cls-2" d="M48.68,126.15a102.44,102.44,0,0,1,1.92-17,4.69,4.69,0,0,0-1,1.35c-.18.57-1.41,3.25-1.1,15.34Z"/><path class="cls-2" d="M31.33,73.13s1.4-1.73,4.89-1.87c4-.15,5.06-4.6,3.69-7.48-1.12-2.36-2.64-2.31-5.43-8.17C34.48,55.61,29.22,60.78,31.33,73.13Z"/><path class="cls-2" d="M51.25,72.75A9.9,9.9,0,0,0,46,71.26c-4-.15-5.07-4.6-3.7-7.48,1.12-2.36,2.64-2.31,5.44-8.17C47.72,55.61,53.36,60.4,51.25,72.75Z"/><path class="cls-2" d="M44.55,19.92s-1.87-.79-1.87-4.3c0,0,1.65.8,1.77,1.9S44.46,19.13,44.55,19.92Z"/><path class="cls-2" d="M37.66,19.92s1.87-.79,1.87-4.3c0,0-1.65.8-1.78,1.9S37.75,19.13,37.66,19.92Z"/><path class="cls-2" d="M7.52,60.93s-1-.32-2,.92A12.76,12.76,0,0,0,3.7,64.32c0,.38.17,1,1.23,1.39s1.78,1.17,3.14,0A3.68,3.68,0,0,0,9.75,63C9.75,62.28,8.53,61.18,7.52,60.93Z"/><path class="cls-2" d="M6.4,60.58s-1.21.47-1.58.69c-.54.32-3.13.78-3.51.39a.27.27,0,0,1-.09-.28c.06-.13.35-.17.54-.16a9.91,9.91,0,0,0,2.32-.32A4.6,4.6,0,0,1,6.4,60.58Z"/><path class="cls-2" d="M2.83,65S1.7,66.29,1.4,66.77.5,68.08.72,68.33,1.5,67.71,2,67.14c.29-.34,1.06-1.22,1.2-1.45S3.39,65.24,2.83,65Z"/><path class="cls-2" d="M3.7,65.75,2,67.69C1.63,68.15,1,69,1,69.08a.29.29,0,0,0,0,.37c.11.1.33,0,.62-.24s2.34-2.53,2.48-2.7c0,0,.3-.32.11-.41A1.6,1.6,0,0,1,3.7,65.75Z"/><path class="cls-2" d="M4.75,66.32S3.23,68,3,68.24s-.68.68-.76.79-.28.38-.09.54.5,0,.84-.36,1.54-1.47,1.84-1.76a7.77,7.77,0,0,0,.67-.73C5.62,66.54,5.26,66.73,4.75,66.32Z"/><path class="cls-2" d="M6,66.89s-.89.91-1.21,1.21-.84.76-.64,1,1.14-.55,1.45-.82a12.44,12.44,0,0,0,1.21-1.17C7,66.85,6.77,67.17,6,66.89Z"/><path class="cls-2" d="M24.54,32.17s-.3-4.15,1.18-5.85,2.77-1.72,5.15-2.22C30.87,24.1,32.16,29.89,24.54,32.17Z"/><path class="cls-2" d="M31.91,25a11.44,11.44,0,0,1,4.85,7.52,18.86,18.86,0,0,1-8-1.43A6.7,6.7,0,0,0,31.91,25Z"/><path class="cls-2" d="M40.41,44.54s-.54,4-5.3,9.47c0,0,2.08,5.17,5.22,8.08C40.33,62.09,40.61,46.23,40.41,44.54Z"/><path class="cls-2" d="M33.18,55.61c-.36.46-.79,1-1.08,1.42,0,0,.7-2.52-.33-11.48a12.31,12.31,0,0,1,2.09,5.57S34.09,54.44,33.18,55.61Z"/><path class="cls-2" d="M27.16,31.71s-3.2,2.14-2.87,5.55,1.32,5,.23,6.83A4.26,4.26,0,0,0,27.88,41C28.41,38.33,27.24,36.07,27.16,31.71Z"/><path class="cls-2" d="M24.07,33.76a14.64,14.64,0,0,0-3.13,8.81A32.42,32.42,0,0,0,24.07,33.76Z"/><path class="cls-2" d="M23.75,37.9s.64,4,.23,5.31-1.32,1.86-2,1.8-.62-1.68.27-3.36A11.26,11.26,0,0,0,23.75,37.9Z"/><path class="cls-2" d="M20.75,44.09A17.61,17.61,0,0,0,17.11,48c-.86,1.56-2.48,5.72-4.18,7.87-.42.54-1.78,2.18-1.78,2.18a51.61,51.61,0,0,0,5.35-5.38C18.18,50.51,19.58,49.56,20.75,44.09Z"/><path class="cls-2" d="M24.79,45.1c.12-.48-3.41.68-3.9,2A17.91,17.91,0,0,1,16.19,54s1.9-1,2.79-1.41S23.45,50.42,24.79,45.1Z"/><path class="cls-2" d="M24.52,47.29a12.17,12.17,0,0,1-5.84,6.34c-4.22,2.12-9.16,7.27-9.16,7.27a87.2,87.2,0,0,1,8.57-5.54A11.72,11.72,0,0,0,24.52,47.29Z"/><path class="cls-2" d="M16.7,57s-4.25,2.77-5.5,3.67-.7,1.09-.32,1.1,1-.51,1.9-1.29S16.7,57,16.7,57Z"/><path class="cls-3" d="M31.44,23.93a16.8,16.8,0,0,1,5.31-2.56s3.36-.59,3.37-5.4c0,0,0-.45.27-.45s.24.23.26.53-.2,22.12-.2,22.12c-1.44-1.29-2.8-6.3-3.1-7.57C37.35,30.6,35.79,25.35,31.44,23.93Z"/><path class="cls-2" d="M74.67,60.93s1-.32,2,.92a11.89,11.89,0,0,1,1.79,2.47c0,.38-.16,1-1.22,1.39s-1.79,1.17-3.15,0S72.45,63.69,72.45,63,73.67,61.18,74.67,60.93Z"/><path class="cls-2" d="M75.79,60.58s1.21.47,1.58.69c.54.32,3.14.78,3.51.39a.26.26,0,0,0,.09-.28c-.06-.13-.35-.17-.54-.16a9.83,9.83,0,0,1-2.31-.32A4.64,4.64,0,0,0,75.79,60.58Z"/><path class="cls-2" d="M79.37,65s1.13,1.32,1.43,1.8.9,1.31.67,1.56-.77-.62-1.24-1.19c-.28-.34-1-1.22-1.19-1.45S78.81,65.24,79.37,65Z"/><path class="cls-2" d="M78.5,65.75l1.65,1.94c.41.46,1,1.3,1.08,1.39a.28.28,0,0,1,0,.37c-.11.1-.33,0-.62-.24s-2.33-2.53-2.47-2.7c0,0-.3-.32-.12-.41A1.77,1.77,0,0,0,78.5,65.75Z"/><path class="cls-2" d="M77.45,66.32S79,68,79.16,68.24a10.79,10.79,0,0,1,.77.79c.08.11.27.38.08.54s-.49,0-.84-.36-1.54-1.47-1.83-1.76a6.6,6.6,0,0,1-.67-.73C76.57,66.54,76.94,66.73,77.45,66.32Z"/><path class="cls-2" d="M76.16,66.89s.88.91,1.21,1.21.84.76.63,1-1.13-.55-1.45-.82a12.26,12.26,0,0,1-1.2-1.17C75.18,66.85,75.42,67.17,76.16,66.89Z"/><path class="cls-2" d="M57.65,32.17S58,28,56.48,26.32s-2.77-1.72-5.16-2.22C51.32,24.1,50,29.89,57.65,32.17Z"/><path class="cls-2" d="M44.36,35.68l0,.08s.77-2.35,2.77-2.46a36,36,0,0,0,7.22-1.59A26.78,26.78,0,0,1,53,39.78a10.64,10.64,0,0,1-2.49,4.56c-3.68,3.51-2.85,9.1-2.85,9.1s-5.78-7.76-5.78-12.67V39.4a8.46,8.46,0,0,0,2.46-3.64H37.87a8.46,8.46,0,0,0,2.46,3.64v1.37c0,4.91-5.78,12.67-5.78,12.67s.83-5.59-2.86-9.1a10.64,10.64,0,0,1-2.49-4.56,26.61,26.61,0,0,1-1.32-8.07A36,36,0,0,0,35.1,33.3c2,.11,2.77,2.46,2.77,2.46l0-.08Z"/><path class="cls-2" d="M50.28,25a11.44,11.44,0,0,0-4.85,7.52,18.81,18.81,0,0,0,8-1.43A6.72,6.72,0,0,1,50.28,25Z"/><path class="cls-2" d="M41.78,44.54s.55,4,5.31,9.47c0,0-2.08,5.17-5.22,8.08C41.87,62.09,41.59,46.23,41.78,44.54Z"/><path class="cls-2" d="M48.85,54.2c.35.45.78,1,1.07,1.41,0,0-.53-1.1.51-10.06a12.17,12.17,0,0,0-2.09,5.57A4.25,4.25,0,0,0,48.85,54.2Z"/><path class="cls-2" d="M55,31.71s3.2,2.14,2.88,5.55-1.33,5-.23,6.83A4.26,4.26,0,0,1,54.32,41C53.78,38.33,55,36.07,55,31.71Z"/><path class="cls-2" d="M58.12,33.76a14.64,14.64,0,0,1,3.13,8.81A32.81,32.81,0,0,1,58.12,33.76Z"/><path class="cls-2" d="M58.45,37.9s-.64,4-.24,5.31,1.32,1.86,2,1.8.62-1.68-.27-3.36A11.2,11.2,0,0,1,58.45,37.9Z"/><path class="cls-2" d="M61.45,44.09A17.86,17.86,0,0,1,65.09,48c.85,1.56,2.48,5.72,4.18,7.87.42.54,1.78,2.18,1.78,2.18a51.35,51.35,0,0,1-5.36-5.38C64,50.51,62.62,49.56,61.45,44.09Z"/><path class="cls-2" d="M57.4,45.1c-.12-.48,3.42.68,3.9,2A17.85,17.85,0,0,0,66,54s-1.9-1-2.79-1.41S58.75,50.42,57.4,45.1Z"/><path class="cls-2" d="M57.68,47.29a12.13,12.13,0,0,0,5.83,6.34c4.23,2.12,9.16,7.27,9.16,7.27a87.93,87.93,0,0,0-8.56-5.54A11.67,11.67,0,0,1,57.68,47.29Z"/><path class="cls-2" d="M65.49,57s4.25,2.77,5.5,3.67.7,1.09.33,1.1-1-.51-1.9-1.29S65.49,57,65.49,57Z"/><path class="cls-3" d="M50.76,23.93a16.93,16.93,0,0,0-5.32-2.56s-3.36-.59-3.37-5.4c0,0,0-.45-.27-.45s-.24.23-.26.53.13,22.16.13,22.16c1.44-1.29,2.88-6.34,3.18-7.61C44.85,30.6,46.4,25.35,50.76,23.93Z"/></g></g></svg>