<svg xmlns="http://www.w3.org/2000/svg" viewBox="0 0 290 289.87"><defs><style>.cls-1{fill:#aee0f8;}.cls-2{fill:#34456b;}</style></defs><g id="Layer_2" data-name="Layer 2"><g id="Layer_1-2" data-name="Layer 1"><g id="NewGroup37-0"><path class="cls-1" d="M241.78,198.23a43.46,43.46,0,1,0,43.42,43.42,43.42,43.42,0,0,0-43.42-43.42Z"/><path class="cls-2" d="M278.05,122V228a4.8,4.8,0,0,0,9.6,0V122a4.8,4.8,0,1,0-9.6,0Zm-76.5,131.4H8.63v1l.38-.89a1,1,0,0,0-.38-.08v1l.38-.89-.38.88.8-.54a1.07,1.07,0,0,0-.42-.34l-.38.88.8-.54-.8.54h1a1,1,0,0,0-.16-.54l-.8.54h1V44.4h-1l.89.37a.94.94,0,0,0,.07-.37h-1l.89.37-.88-.37.53.8a1.06,1.06,0,0,0,.35-.43l-.88-.37.53.8-.54-.8v1a1,1,0,0,0,.54-.16l-.54-.8v1H65.05a4.8,4.8,0,0,0,0-9.59H8.63A8.63,8.63,0,0,0,0,44.4V254.31A8.63,8.63,0,0,0,8.63,263H201.55a4.8,4.8,0,0,0,0-9.6Zm-101.39-208H185a4.8,4.8,0,0,0,0-9.59H100.16a4.8,4.8,0,1,0,0,9.59Zm119.93,0H279v-1l-.37.89a1,1,0,0,0,.37.07v-1l-.37.89.37-.88-.79.53a1,1,0,0,0,.42.35l.37-.88-.79.53.8-.54h-1a1,1,0,0,0,.17.54l.8-.54h-1V90a4.8,4.8,0,1,0,9.6,0V44.4A8.8,8.8,0,0,0,287,41a8.67,8.67,0,0,0-8-5.27H220.09a4.8,4.8,0,1,0,0,9.59ZM33.83,196.92h1.43l3.16,1.17a3.34,3.34,0,0,0,.21-1.17H35.26l3.16,1.17L35.55,197l2.5,1.77a3.11,3.11,0,0,0,.37-.71L35.55,197l2.5,1.77-1.76-1.25,1.24,1.78a2.09,2.09,0,0,0,.52-.53l-1.76-1.25,1.24,1.78-.56-.8.48.86.08-.06-.56-.8.48.86-.14-.26.12.27h0l-.14-.26.12.27a.74.74,0,0,1,.24-.07,2.74,2.74,0,0,1,.56-.06H77.4a2.52,2.52,0,0,1,.62.07.62.62,0,0,1,.18.06l.13-.29-.16.27,0,0,.13-.29-.16.27.94-1.63-1.49,1.11a1.8,1.8,0,0,0,.55.52l.94-1.63-1.49,1.11L80.06,197l-2.86,1a3.19,3.19,0,0,0,.42.79L80.06,197l-2.86,1,3.17-1.15H77a3.46,3.46,0,0,0,.2,1.15l3.17-1.15H77v14.7h3.37l-3.16-1.16a3.28,3.28,0,0,0-.21,1.16h3.37l-3.16-1.16,2.87,1-2.5-1.77a3,3,0,0,0-.37.72l2.87,1-2.5-1.77L79.34,211l-1.24-1.78a2.29,2.29,0,0,0-.52.53L79.34,211l-1.24-1.78.56.8-.48-.85a.25.25,0,0,0-.08.05l.56.8-.48-.85.14.26-.12-.27h0l.14.26-.12-.27a1.64,1.64,0,0,1-.24.07,2.83,2.83,0,0,1-.56.05H38.23a2.52,2.52,0,0,1-.62-.07.92.92,0,0,1-.18,0l-.13.28.15-.27h0l-.13.28.15-.27-.93,1.64L38,209.69a1.91,1.91,0,0,0-.56-.53l-.93,1.64L38,209.69l-2.44,1.82,2.86-1a3.1,3.1,0,0,0-.42-.78l-2.44,1.82,2.86-1-3.17,1.15h3.37a3.51,3.51,0,0,0-.2-1.15l-3.17,1.15h3.37v-14.7H29v14.7a6.35,6.35,0,0,0,.38,2.15,7.05,7.05,0,0,0,.81,1.52A7.41,7.41,0,0,0,32,217.07a9.42,9.42,0,0,0,3,1.37,12.2,12.2,0,0,0,3.22.42H77.4a11.81,11.81,0,0,0,2.81-.32,10.83,10.83,0,0,0,2-.67,8.76,8.76,0,0,0,1.44-.83,7.27,7.27,0,0,0,2-2,6.7,6.7,0,0,0,.71-1.55,6.14,6.14,0,0,0,.28-1.83v-14.7a6,6,0,0,0-.39-2.14,6.5,6.5,0,0,0-.8-1.53,7.59,7.59,0,0,0-1.81-1.78,9.75,9.75,0,0,0-3-1.37,12.2,12.2,0,0,0-3.22-.42H38.23a12.5,12.5,0,0,0-2.82.32,10.3,10.3,0,0,0-2,.68,8.69,8.69,0,0,0-1.44.82,7.32,7.32,0,0,0-2,2.05,6.82,6.82,0,0,0-.71,1.54,6.14,6.14,0,0,0-.28,1.83Zm0-40h1.43l3.16,1.16a3.32,3.32,0,0,0,.21-1.16H35.26l3.16,1.16-2.87-1.06,2.5,1.77a3.11,3.11,0,0,0,.37-.71l-2.87-1.06,2.5,1.77-1.76-1.25,1.24,1.79a2.41,2.41,0,0,0,.52-.54l-1.76-1.25,1.24,1.79-.56-.8.48.85.08,0-.56-.8.48.85-.14-.26.12.27h0l-.14-.26.12.27a1.25,1.25,0,0,1,.24-.07,2.83,2.83,0,0,1,.56,0H77.4a3.24,3.24,0,0,1,.62.06l.18.06.13-.29-.16.28h0l.13-.29-.16.28.94-1.64-1.49,1.11a2.1,2.1,0,0,0,.55.53l.94-1.64-1.49,1.11,2.44-1.82-2.86,1a3,3,0,0,0,.42.79l2.44-1.82-2.86,1L80.37,157H77a3.45,3.45,0,0,0,.2,1.14L80.37,157H77v14.69h3.37l-3.16-1.16a3.32,3.32,0,0,0-.21,1.16h3.37l-3.16-1.16,2.87,1.06-2.5-1.77a3.11,3.11,0,0,0-.37.71l2.87,1.06-2.5-1.77L79.34,171l-1.24-1.79a2.41,2.41,0,0,0-.52.54L79.34,171l-1.24-1.79.56.8-.48-.85-.08,0,.56.8-.48-.85.14.26-.12-.27h0l.14.26-.12-.27a1.64,1.64,0,0,1-.24.07,2.83,2.83,0,0,1-.56,0H38.23a3.24,3.24,0,0,1-.62-.06l-.18-.06-.13.29.15-.28h0l-.13.29.15-.28-.93,1.64L38,169.71a1.91,1.91,0,0,0-.56-.53l-.93,1.64L38,169.71l-2.44,1.82,2.86-1a3,3,0,0,0-.42-.79l-2.44,1.82,2.86-1-3.17,1.14h3.37a3.45,3.45,0,0,0-.2-1.14l-3.17,1.14h3.37V157H29v14.69a6.31,6.31,0,0,0,.38,2.15,7.05,7.05,0,0,0,.81,1.52A7.65,7.65,0,0,0,32,177.1a9.61,9.61,0,0,0,3,1.36,11.81,11.81,0,0,0,3.22.43H77.4a12.35,12.35,0,0,0,2.81-.32,10.16,10.16,0,0,0,2-.68,8.69,8.69,0,0,0,1.44-.82,7.32,7.32,0,0,0,2-2,6.82,6.82,0,0,0,.71-1.54,6.16,6.16,0,0,0,.28-1.84V157a6.08,6.08,0,0,0-.39-2.15,6.62,6.62,0,0,0-.8-1.52,7.65,7.65,0,0,0-1.81-1.79,9.71,9.71,0,0,0-3-1.36,11.81,11.81,0,0,0-3.22-.43H38.23a12.5,12.5,0,0,0-2.82.32,10.3,10.3,0,0,0-2,.68,8.69,8.69,0,0,0-1.44.82,7.32,7.32,0,0,0-2,2,6.82,6.82,0,0,0-.71,1.54A6.16,6.16,0,0,0,29,157Zm.4-39.76h3.46l1.23.52a1.35,1.35,0,0,0,.11-.52H37.69l1.23.52-1.22-.52.74,1.1a1.37,1.37,0,0,0,.48-.58l-1.22-.52.74,1.1-.75-1.11v1.34a1.41,1.41,0,0,0,.75-.23l-.75-1.11v1.34H79.54v-1.34L79,118.41a1.4,1.4,0,0,0,.53.11v-1.34L79,118.41l.52-1.21-1.1.74a1.33,1.33,0,0,0,.58.47l.52-1.21-1.1.74,1.11-.75H78.2a1.41,1.41,0,0,0,.23.75l1.11-.75H78.2v12.66h1.34l-1.23-.52a1.35,1.35,0,0,0-.11.52h1.34l-1.23-.52,1.22.51-.74-1.09a1.25,1.25,0,0,0-.48.58l1.22.51-.74-1.09.75,1.1v-1.33a1.23,1.23,0,0,0-.75.23l.75,1.1v-1.33H37.69v1.33l.52-1.23a1.18,1.18,0,0,0-.52-.1v1.33l.52-1.23-.51,1.22,1.1-.74a1.4,1.4,0,0,0-.59-.48l-.51,1.22,1.1-.74-1.11.75H39a1.41,1.41,0,0,0-.23-.75l-1.11.75H39V117.19h-9.6v12.66a8.25,8.25,0,0,0,8.26,8.26H79.54a8.28,8.28,0,0,0,8.26-8.26V117.19a8.25,8.25,0,0,0-8.26-8.26H37.69a8.21,8.21,0,0,0-6.84,3.64,8.25,8.25,0,0,0-1.42,4.62Zm83.15,0h3.46l1.23.52a1.35,1.35,0,0,0,.11-.52h-1.34l1.23.52-1.22-.52.74,1.1a1.3,1.3,0,0,0,.48-.58l-1.22-.52.74,1.1-.75-1.11v1.34a1.38,1.38,0,0,0,.75-.23l-.75-1.11v1.34h41.85v-1.34l-.52,1.23a1.35,1.35,0,0,0,.52.11v-1.34l-.52,1.23.51-1.21-1.09.74a1.23,1.23,0,0,0,.58.47l.51-1.21-1.09.74,1.1-.75h-1.34a1.34,1.34,0,0,0,.24.75l1.1-.75h-1.34v12.66h1.34l-1.23-.52a1.35,1.35,0,0,0-.11.52h1.34l-1.23-.52,1.22.51-.74-1.09a1.31,1.31,0,0,0-.48.58l1.22.51-.74-1.09.75,1.1v-1.33a1.26,1.26,0,0,0-.75.23l.75,1.1v-1.33H120.84v1.33l.53-1.23a1.22,1.22,0,0,0-.53-.1v1.33l.53-1.23-.52,1.22,1.1-.74a1.43,1.43,0,0,0-.58-.48l-.52,1.22,1.1-.74-1.11.75h1.34a1.41,1.41,0,0,0-.23-.75l-1.11.75h1.34V117.19h-9.6v12.66a8.3,8.3,0,0,0,.65,3.22,8.43,8.43,0,0,0,3,3.63,8.26,8.26,0,0,0,4.62,1.41h41.85a8.25,8.25,0,0,0,8.26-8.26V117.19a8.25,8.25,0,0,0-8.26-8.26H120.84a8.28,8.28,0,0,0-8.26,8.26ZM167,157h-4.8v14.69h3.37l-3.16-1.16a3.32,3.32,0,0,0-.21,1.16h3.37l-3.16-1.16,2.87,1.06-2.5-1.77a3.11,3.11,0,0,0-.37.71l2.87,1.06-2.5-1.77,1.76,1.25-1.24-1.79a2.41,2.41,0,0,0-.52.54l1.76,1.25-1.24-1.79.56.8-.48-.85-.08,0,.56.8-.48-.85.14.26-.12-.27h0l.14.26-.12-.27a1.25,1.25,0,0,1-.24.07,2.83,2.83,0,0,1-.56,0H123.38a3.24,3.24,0,0,1-.62-.06l-.18-.06-.13.29.15-.28h0l-.13.29.15-.28-.93,1.64,1.49-1.11a1.91,1.91,0,0,0-.56-.53l-.93,1.64,1.49-1.11-2.44,1.82,2.86-1a3,3,0,0,0-.42-.79l-2.44,1.82,2.86-1-3.17,1.14h3.37a3.45,3.45,0,0,0-.2-1.14l-3.17,1.14h3.37V157h-3.37l3.16,1.16a3.32,3.32,0,0,0,.21-1.16h-3.37l3.16,1.16-2.87-1.06,2.5,1.77a3.11,3.11,0,0,0,.37-.71l-2.87-1.06,2.5,1.77-1.76-1.25,1.24,1.79a2.41,2.41,0,0,0,.52-.54l-1.76-1.25,1.24,1.79-.56-.8.48.85.08,0-.56-.8.48.85-.14-.26.12.27h0l-.14-.26.12.27a1.64,1.64,0,0,1,.24-.07,2.83,2.83,0,0,1,.56,0h39.17a3.24,3.24,0,0,1,.62.06l.18.06.13-.29-.15.28h0l.13-.29-.15.28.93-1.64-1.49,1.11a1.91,1.91,0,0,0,.56.53l.93-1.64-1.49,1.11,2.44-1.82-2.86,1a3,3,0,0,0,.42.79l2.44-1.82-2.86,1,3.17-1.14h-3.37a3.45,3.45,0,0,0,.2,1.14l3.17-1.14h6.23a6.08,6.08,0,0,0-.39-2.15,6.62,6.62,0,0,0-.8-1.52,7.65,7.65,0,0,0-1.81-1.79,9.61,9.61,0,0,0-3-1.36,11.81,11.81,0,0,0-3.22-.43H123.38a12.35,12.35,0,0,0-2.81.32,10.16,10.16,0,0,0-2,.68,8.69,8.69,0,0,0-1.44.82,7.32,7.32,0,0,0-2,2,6.82,6.82,0,0,0-.71,1.54,6.16,6.16,0,0,0-.28,1.84v14.69a6.08,6.08,0,0,0,.39,2.15,6.62,6.62,0,0,0,.8,1.52,7.65,7.65,0,0,0,1.81,1.79,9.71,9.71,0,0,0,3,1.36,11.81,11.81,0,0,0,3.22.43h39.17a12.35,12.35,0,0,0,2.81-.32,10.16,10.16,0,0,0,2-.68,8.69,8.69,0,0,0,1.44-.82,7.32,7.32,0,0,0,2-2,6.82,6.82,0,0,0,.71-1.54,6.16,6.16,0,0,0,.28-1.84V157Zm0,54.67h-1.43l-3.16-1.16a3.28,3.28,0,0,0-.21,1.16h3.37l-3.16-1.16,2.87,1-2.5-1.77a3,3,0,0,0-.37.72l2.87,1-2.5-1.77,1.76,1.25-1.24-1.78a2.29,2.29,0,0,0-.52.53l1.76,1.25-1.24-1.78.56.8-.48-.85-.08.05.56.8-.48-.85.14.26-.12-.27h0l.14.26-.12-.27a1.25,1.25,0,0,1-.24.07,2.83,2.83,0,0,1-.56.05H123.38a2.52,2.52,0,0,1-.62-.07.92.92,0,0,1-.18,0l-.13.28.15-.27h0l-.13.28.15-.27-.93,1.64,1.49-1.11a1.91,1.91,0,0,0-.56-.53l-.93,1.64,1.49-1.11-2.44,1.82,2.86-1a3.1,3.1,0,0,0-.42-.78l-2.44,1.82,2.86-1-3.17,1.15h3.37a3.51,3.51,0,0,0-.2-1.15l-3.17,1.15h3.37v-14.7h-3.37l3.16,1.17a3.34,3.34,0,0,0,.21-1.17h-3.37l3.16,1.17L120.7,197l2.5,1.77a3.11,3.11,0,0,0,.37-.71L120.7,197l2.5,1.77-1.76-1.25,1.24,1.78a2.09,2.09,0,0,0,.52-.53l-1.76-1.25,1.24,1.78-.56-.8.48.86.08-.06-.56-.8.48.86-.14-.26.12.27h0l-.14-.26.12.27a.86.86,0,0,1,.24-.07,2.74,2.74,0,0,1,.56-.06h39.17a2.52,2.52,0,0,1,.62.07.62.62,0,0,1,.18.06l.13-.29-.15.27,0,0,.13-.29-.15.27.93-1.63-1.49,1.11a1.66,1.66,0,0,0,.56.52l.93-1.63-1.49,1.11,2.44-1.82-2.86,1a3.19,3.19,0,0,0,.42.79l2.44-1.82-2.86,1,3.17-1.15h-3.37a3.46,3.46,0,0,0,.2,1.15l3.17-1.15h-3.37v14.7h9.6v-14.7a6,6,0,0,0-.39-2.14,6.5,6.5,0,0,0-.8-1.53,7.59,7.59,0,0,0-1.81-1.78,9.64,9.64,0,0,0-3-1.37,12.2,12.2,0,0,0-3.22-.42H123.38a12.35,12.35,0,0,0-2.81.32,10.16,10.16,0,0,0-2,.68,8.69,8.69,0,0,0-1.44.82,7.32,7.32,0,0,0-2,2.05,6.82,6.82,0,0,0-.71,1.54,6.14,6.14,0,0,0-.28,1.83v14.7a6.12,6.12,0,0,0,.39,2.15,6.62,6.62,0,0,0,.8,1.52,7.41,7.41,0,0,0,1.81,1.78,9.52,9.52,0,0,0,3,1.37,12.2,12.2,0,0,0,3.22.42h39.17a11.81,11.81,0,0,0,2.81-.32,10.83,10.83,0,0,0,2-.67,8.76,8.76,0,0,0,1.44-.83,7.27,7.27,0,0,0,2-2,6.7,6.7,0,0,0,.71-1.55,6.14,6.14,0,0,0,.28-1.83Zm36.78-94.43h3.46l1.23.52a1.35,1.35,0,0,0,.11-.52h-1.34l1.23.52-1.22-.52.74,1.1a1.3,1.3,0,0,0,.48-.58l-1.22-.52.74,1.1-.75-1.11v1.34a1.38,1.38,0,0,0,.75-.23l-.75-1.11v1.34H249v-1.34l-.52,1.23a1.35,1.35,0,0,0,.52.11v-1.34l-.52,1.23.51-1.21-1.09.74a1.23,1.23,0,0,0,.58.47l.51-1.21-1.09.74,1.1-.75H247.7a1.34,1.34,0,0,0,.24.75l1.1-.75H247.7v12.66H249l-1.23-.52a1.35,1.35,0,0,0-.11.52H249l-1.23-.52,1.22.51-.74-1.09a1.31,1.31,0,0,0-.48.58l1.22.51-.74-1.09.75,1.1v-1.33a1.26,1.26,0,0,0-.75.23l.75,1.1v-1.33H207.19v1.33l.53-1.23a1.22,1.22,0,0,0-.53-.1v1.33l.53-1.23-.52,1.22,1.1-.74a1.43,1.43,0,0,0-.58-.48l-.52,1.22,1.1-.74-1.11.75h1.34a1.41,1.41,0,0,0-.23-.75l-1.11.75h1.34V117.19h-9.6v12.66a8.3,8.3,0,0,0,.65,3.22,8.43,8.43,0,0,0,3,3.63,8.29,8.29,0,0,0,4.62,1.41H249a8.25,8.25,0,0,0,8.26-8.26V117.19a8.25,8.25,0,0,0-8.26-8.26H207.19a8.28,8.28,0,0,0-8.26,8.26Zm48.37,54.45h-1.43l-3.16-1.16a3.32,3.32,0,0,0-.2,1.16h3.36l-3.16-1.16,2.87,1.06-2.5-1.77a3.11,3.11,0,0,0-.37.71l2.87,1.06-2.5-1.77,1.76,1.25-1.24-1.79a2.41,2.41,0,0,0-.52.54l1.76,1.25-1.24-1.79.56.8-.48-.85-.08,0,.56.8-.48-.85.15.26-.13-.27h0l.15.26-.13-.27a1.25,1.25,0,0,1-.24.07,2.83,2.83,0,0,1-.56,0H208.53a3.24,3.24,0,0,1-.62-.06l-.18-.06-.13.29.16-.28h0l-.13.29.16-.28-.94,1.64,1.49-1.11a2.1,2.1,0,0,0-.55-.53l-.94,1.64,1.49-1.11-2.44,1.82,2.86-1a3,3,0,0,0-.42-.79l-2.44,1.82,2.86-1-3.17,1.14h3.37a3.45,3.45,0,0,0-.2-1.14l-3.17,1.14h3.37V157h-3.37l3.16,1.16a3.32,3.32,0,0,0,.21-1.16h-3.37l3.16,1.16-2.87-1.06,2.5,1.77a3.11,3.11,0,0,0,.37-.71l-2.87-1.06,2.5,1.77-1.76-1.25,1.24,1.79a2.41,2.41,0,0,0,.52-.54l-1.76-1.25,1.24,1.79-.56-.8.48.85.08,0-.56-.8.48.85-.14-.26.12.27h0l-.14-.26.12.27a1.64,1.64,0,0,1,.24-.07,2.83,2.83,0,0,1,.56,0H247.7a3.24,3.24,0,0,1,.62.06l.18.06.13-.29-.15.28h0l.13-.29-.15.28.93-1.64-1.49,1.11a1.91,1.91,0,0,0,.56.53l.93-1.64-1.49,1.11,2.44-1.82-2.86,1a3.34,3.34,0,0,0,.42.79l2.44-1.82-2.86,1,3.17-1.14h-3.36a3.21,3.21,0,0,0,.19,1.14l3.17-1.14h-3.36v14.69h9.59V157a6.31,6.31,0,0,0-.38-2.15,7.05,7.05,0,0,0-.81-1.52,7.65,7.65,0,0,0-1.81-1.79,9.61,9.61,0,0,0-3-1.36,11.81,11.81,0,0,0-3.22-.43H208.53a12.35,12.35,0,0,0-2.81.32,10.39,10.39,0,0,0-2,.68,8.69,8.69,0,0,0-1.44.82,7.46,7.46,0,0,0-2,2,6.82,6.82,0,0,0-.71,1.54,6.16,6.16,0,0,0-.28,1.84v14.69a6.08,6.08,0,0,0,.39,2.15,6.62,6.62,0,0,0,.8,1.52,7.65,7.65,0,0,0,1.81,1.79,9.71,9.71,0,0,0,3,1.36,11.86,11.86,0,0,0,3.22.43H247.7a12.5,12.5,0,0,0,2.82-.32,10.3,10.3,0,0,0,2-.68,8.69,8.69,0,0,0,1.44-.82,7.32,7.32,0,0,0,2-2,6.82,6.82,0,0,0,.71-1.54,6.16,6.16,0,0,0,.28-1.84Z"/><path class="cls-2" d="M241.78,198.23v-4.8A48.24,48.24,0,0,0,197.17,260h0a48.23,48.23,0,0,0,89.22,0h0a48.22,48.22,0,0,0-44.61-66.55V203a38.64,38.64,0,0,1,35.74,53.3h0a38.65,38.65,0,0,1-71.48,0h0A38.64,38.64,0,0,1,241.78,203v-4.79Z"/><path class="cls-2" d="M219.08,47.59h-4.8a11.77,11.77,0,1,1-18.34-9.76,11.82,11.82,0,0,1,11.15-1.08A11.81,11.81,0,0,1,212.27,41a11.65,11.65,0,0,1,2,6.57h9.59a21.36,21.36,0,1,0-3.65,11.95,21.34,21.34,0,0,0,3.65-11.95Z"/><path class="cls-2" d="M207.31,31V4.8a4.8,4.8,0,1,0-9.59,0V31a4.8,4.8,0,1,0,9.59,0"/><path class="cls-2" d="M99.82,47.59H95a11.77,11.77,0,1,1-18.34-9.76,11.64,11.64,0,0,1,6.57-2A11.77,11.77,0,0,1,95,47.59h9.59A21.36,21.36,0,1,0,101,59.54a21.34,21.34,0,0,0,3.65-11.95Z"/><path class="cls-2" d="M88.06,31V4.8a4.8,4.8,0,1,0-9.6,0V31a4.8,4.8,0,1,0,9.6,0"/><path class="cls-2" d="M266.67,264.37l-1.62,1.72a3,3,0,0,1-4.2.13l-20.6-19.32a6.47,6.47,0,0,1-5.27-6.36,6.38,6.38,0,0,1,1-3.48V218.32a3,3,0,0,1,3-3h2.36a3,3,0,0,1,3,3v16.4a6.48,6.48,0,0,1,3.63,5.82,6.31,6.31,0,0,1-.29,1.91l18.87,17.71a3,3,0,0,1,.14,4.21Z"/></g></g></g></svg>