<svg xmlns="http://www.w3.org/2000/svg" viewBox="0 0 523.59 658.26"><defs><style>.cls-1{fill:#e6e6e6;}.cls-2{fill:#f3e8b4;}.cls-3{fill:gray;}.cls-4{fill:#f2f2f2;}.cls-5{fill:#666;}.cls-6{fill:#fff;}.cls-7{fill:#52485e;}.cls-8{fill:#4d4d4d;}.cls-9{fill:#545454;}.cls-10{fill:#ff8a4a;}.cls-11{fill:#a9c6c9;}.cls-12{fill:#b3b3b3;}.cls-13{fill:#333;}.cls-14{fill:#ccc;}.cls-15{fill:#ff502f;}.cls-16{fill:#292929;}.cls-17{fill:#454545;}.cls-18{fill:#bfdcde;}.cls-19{fill:#f27441;}.cls-20{fill:#695c78;}.cls-21{fill:#766887;}.cls-22{fill:#f18a24;}.cls-23{fill:#e87825;}.cls-24{fill:#ffed8c;}.cls-25{fill:#c69c6d;}.cls-26{fill:#ffea78;}.cls-27{fill:#f7e270;}.cls-28{fill:#fff1a8;}.cls-29{fill:#eb5055;}.cls-30{fill:#cf9451;}.cls-31{fill:#bf894b;}.cls-32{fill:#433b4a;}.cls-33{fill:#38313d;}.cls-34{fill:#ff585d;}.cls-35{fill:#bdbdbd;}.cls-36{fill:#b8b8b8;}.cls-37{fill:#a6a6a6;}.cls-38{fill:#999;}</style></defs><g id="Layer_2" data-name="Layer 2"><g id="Layer_2-2" data-name="Layer 2"><path class="cls-1" d="M387.8,63.43s-66.4-17.9-100.88,38.79-112.06,36.56-182.39,48.36-124.38,54.17-61.44,108,162.07,260.71,257.22,249S524.2,348.44,451.72,282.41,439.78,91,387.8,63.43Z"/><path class="cls-2" d="M265.61,455.18S354,456.4,392.85,467,559.09,576.89,514.09,618.78s-78.08,49.66-120,27-93.6-29.93-153.25-27S30.44,583.08,9.54,561.89c-27.84-28.21,8.65-64.53,65.4-67.62S265.61,455.18,265.61,455.18Z"/><path class="cls-3" d="M341.61,65.93h12.33a5.67,5.67,0,0,1,5.67,5.67v35.17a5.67,5.67,0,0,1-5.67,5.67H341.61a0,0,0,0,1,0,0V65.93A0,0,0,0,1,341.61,65.93Z"/><path class="cls-3" d="M341.61,122.43h12.33a5.67,5.67,0,0,1,5.67,5.67v20.17a5.67,5.67,0,0,1-5.67,5.67H341.61a0,0,0,0,1,0,0v-31.5A0,0,0,0,1,341.61,122.43Z"/><path class="cls-4" d="M113.51,477a23.5,23.5,0,0,1-21.58-13.45c-2.54-5.07-3.73-11.24-3.73-19.43L89.64,34.42c0-20.71,16.22-32.4,32.23-33.22C137.31.4,162.43,0,196.54,0c56.65,0,120.34,1.13,123,1.18a35.37,35.37,0,0,1,20.05,6.29c8.78,6.25,13.62,16.28,13.64,28.24l2.09,409.7C355.35,464,343,477,325.25,477Z"/><path class="cls-5" d="M113.51,472.77a19.41,19.41,0,0,1-17.82-11.14c-2.25-4.46-3.29-10-3.29-17.54L93.84,34.43c0-18.09,14.21-28.32,28.25-29C137.45,4.6,162.5,4.2,196.54,4.2c56.64,0,120,1.12,123,1.18a31,31,0,0,1,17.69,5.51c7.65,5.44,11.87,14.26,11.88,24.82l2.1,409.72c0,16.35-10.41,27.34-25.91,27.34Z"/><path class="cls-3" d="M337.18,10.89a31,31,0,0,0-17.69-5.51C316.7,5.33,259.3,4.31,205,4.21c9.52,24.21,58.33,134.4,66.3,220.72,6.24,67.6,11.24,189.43,11.38,247.84h42.59c15.5,0,25.91-11,25.91-27.34l-2.1-409.72C349.05,25.15,344.83,16.33,337.18,10.89Z"/><path class="cls-6" d="M337.91,413.92c0,8-3.7,13.36-12.66,13.36H113.51c-5.84,0-7.87-5-7.87-14.7l1.45-378c0-11,9.82-14.84,15.65-15.14,51.36-2.65,196.63,0,196.63,0,5.83,0,16.45,2.86,16.45,16.41Z"/><path class="cls-7" d="M133.35,31.14a7.16,7.16,0,0,1-1.25,4.62,4.56,4.56,0,0,1-3.76,1.53,6.23,6.23,0,0,1-1.37-.11V35.76a4.78,4.78,0,0,0,1.29.18,3.26,3.26,0,0,0,2.55-.92,4.43,4.43,0,0,0,.91-2.88h-.08a2.57,2.57,0,0,1-1,.93,3.25,3.25,0,0,1-1.41.29,2.82,2.82,0,0,1-2.19-.87,3.39,3.39,0,0,1-.79-2.38,3.67,3.67,0,0,1,.92-2.62,3.31,3.31,0,0,1,2.51-1,3.46,3.46,0,0,1,2,.55,3.5,3.5,0,0,1,1.28,1.58A6.22,6.22,0,0,1,133.35,31.14Zm-3.66-3.22a1.63,1.63,0,0,0-1.34.57,2.49,2.49,0,0,0-.47,1.61,2.14,2.14,0,0,0,.44,1.41,1.64,1.64,0,0,0,1.32.51,2.09,2.09,0,0,0,1.43-.51,1.54,1.54,0,0,0,.58-1.19,2.84,2.84,0,0,0-.25-1.2,2.09,2.09,0,0,0-.69-.88A1.7,1.7,0,0,0,129.69,27.92Z"/><path class="cls-7" d="M135,30.12A1,1,0,0,1,136,29a1.07,1.07,0,0,1,.81.29,1.09,1.09,0,0,1,.26.79,1.17,1.17,0,0,1-.27.81,1,1,0,0,1-.8.3,1,1,0,0,1-.78-.3A1.09,1.09,0,0,1,135,30.12Zm0,6.13a1.05,1.05,0,0,1,.28-.8,1,1,0,0,1,.78-.28,1.06,1.06,0,0,1,.8.29,1.11,1.11,0,0,1,.27.79,1.17,1.17,0,0,1-.27.81,1,1,0,0,1-.8.3,1,1,0,0,1-.78-.3A1.09,1.09,0,0,1,135,36.25Z"/><path class="cls-7" d="M143.63,37.15H142V30.38c0-.81,0-1.45.06-1.93a5.37,5.37,0,0,1-.41.38L140,30.15l-.85-1.07,3.09-2.42h1.4Z"/><path class="cls-7" d="M150.63,30.6a3.59,3.59,0,0,1,2.51.84,2.93,2.93,0,0,1,.93,2.29,3.34,3.34,0,0,1-1,2.62,4.32,4.32,0,0,1-3,.94,5.78,5.78,0,0,1-2.77-.56V35.2a5.19,5.19,0,0,0,1.34.51,6,6,0,0,0,1.4.18,2.62,2.62,0,0,0,1.74-.51,1.89,1.89,0,0,0,.59-1.5c0-1.25-.8-1.88-2.4-1.88a7.48,7.48,0,0,0-.83.07c-.33,0-.62.1-.87.16l-.75-.45.4-5.12h5.46v1.5h-4l-.24,2.6.61-.11A7.4,7.4,0,0,1,150.63,30.6Z"/><path class="cls-7" d="M321.86,36.75H300.27a.6.6,0,0,1-.6-.6V27.62a.6.6,0,0,1,.6-.6h21.59a.6.6,0,0,1,.6.6v8.53A.6.6,0,0,1,321.86,36.75Zm-21-1.19h20.39V28.21H300.87Z"/><rect class="cls-7" x="312.8" y="27.62" width="8.54" height="8.54"/><path class="cls-7" d="M320.74,29.16h2a.54.54,0,0,1,.54.54v4.38a.54.54,0,0,1-.54.54h-2a0,0,0,0,1,0,0V29.16A0,0,0,0,1,320.74,29.16Z"/><path class="cls-7" d="M298.87,29.16h.86a.54.54,0,0,1,.54.54v4.38a.54.54,0,0,1-.54.54h-.86a0,0,0,0,1,0,0V29.16A0,0,0,0,1,298.87,29.16Z" transform="translate(599.14 63.77) rotate(180)"/><path class="cls-7" d="M279.23,36.75a.6.6,0,0,1-.6-.6V31.29a.6.6,0,0,1,.6-.6.59.59,0,0,1,.59.6v4.86A.59.59,0,0,1,279.23,36.75Z"/><path class="cls-7" d="M276.43,36.75a.6.6,0,0,1-.6-.6V32.69a.6.6,0,0,1,1.2,0v3.46A.6.6,0,0,1,276.43,36.75Z"/><path class="cls-7" d="M282,36.75a.6.6,0,0,1-.6-.6V29.89a.59.59,0,0,1,.6-.59.58.58,0,0,1,.59.59v6.26A.59.59,0,0,1,282,36.75Z"/><path class="cls-7" d="M284.83,36.75a.6.6,0,0,1-.6-.6v-7a.59.59,0,0,1,.6-.59.58.58,0,0,1,.59.59v7A.59.59,0,0,1,284.83,36.75Z"/><path class="cls-7" d="M287.63,36.75a.6.6,0,0,1-.6-.6V27.79a.6.6,0,0,1,1.19,0v8.36A.6.6,0,0,1,287.63,36.75Z"/><path class="cls-5" d="M251.59,29.46a5.57,5.57,0,0,1-4,1.69H191a5.57,5.57,0,0,1-4-1.69L175.59,17.79H263Z"/><path class="cls-3" d="M216,31.15h31.62a5.57,5.57,0,0,0,4-1.69L263,17.79H210.42C212.66,23.35,213.1,23.86,216,31.15Z"/><circle class="cls-8" cx="219.27" cy="18.93" r="6.67"/><path class="cls-9" d="M160.59,204a1.49,1.49,0,0,1-1.21-.61,29.42,29.42,0,0,0-3.89-4.54c-.82-.5-4.91-2.07-7.3-2.94a1.5,1.5,0,0,1,1-2.82,81.37,81.37,0,0,1,7.82,3.2c1.4.85,4,4.29,4.75,5.32a1.5,1.5,0,0,1-.32,2.1A1.48,1.48,0,0,1,160.59,204Z"/><path class="cls-5" d="M168.05,209.3a1.49,1.49,0,0,1-1.21-.61,29.77,29.77,0,0,0-3.89-4.53c-.82-.5-4.91-2.08-7.3-2.95a1.5,1.5,0,0,1,1-2.82c1.08.4,6.52,2.41,7.83,3.2s4,4.29,4.74,5.32a1.5,1.5,0,0,1-.31,2.1A1.48,1.48,0,0,1,168.05,209.3Z"/><path class="cls-10" d="M265.77,234.64s.67,5.47.84,6.13,7.67,9.34,9.5,18.68c1.34,6.83-3.17,36.25-2.33,39.38s5.83,6.47,1.33,8.14-11.67,3-13.51,2.67,3.67-5.6,2.51-10.81-12-37.05-13.84-39.88-7.34-13.51-7.34-17.34S265.77,234.64,265.77,234.64Z"/><path class="cls-11" d="M260.77,183.42s1,10,2,14.25,5,34.52,5,38-20.95,10.44-27,9.5c-3.25-.5-9.66-30.84-9.66-30.84Z"/><path class="cls-12" d="M269.92,305.54s1.8-5.21,4.1-4.87,1.74,1.77,2.08,2.4a15.51,15.51,0,0,1,2,4.24c.24,1.51-.82,3.74-3.83,4.54-1.67.44-2.27,0-3.68.54-.27.1-4,2.35-5.68,3s-8.2,4-9.43,3.07-.9-3.15.78-5.35,5.92-6,6.5-8,.48-3.23,1.61-3.14,3.25.91,3.47,2.31S269.68,306.16,269.92,305.54Z"/><path class="cls-1" d="M174.72,214.53s-3.53-6.72-4.28-8.28-5.35.73-5,2.23,4.61,8.44,4.61,8.44Z"/><path class="cls-13" d="M142,265.38H272.44a0,0,0,0,1,0,0v8.27a0,0,0,0,1,0,0H142a3.08,3.08,0,0,1-3.08-3.08v-2.11A3.08,3.08,0,0,1,142,265.38Z" transform="translate(328.33 -46.54) rotate(58.56)"/><circle class="cls-14" cx="160.59" cy="320.97" r="42.38" transform="translate(-179.93 207.56) rotate(-45)"/><circle class="cls-15" cx="160.64" cy="320.92" r="33.93" transform="translate(-179.88 207.59) rotate(-45)"/><path class="cls-13" d="M313.62,373c.67,1.67-25.09,5-25.09,5l-6.92-33.35,12-6.34S313,371.33,313.62,373Z"/><path class="cls-13" d="M294.37,369.74h24.09a5.84,5.84,0,0,1,5.84,5.84v10.8a2.63,2.63,0,0,1-2.63,2.63H291.16a2.63,2.63,0,0,1-2.63-2.63v-10.8A5.84,5.84,0,0,1,294.37,369.74Z"/><path class="cls-13" d="M150,370.5a.28.28,0,0,0-.2,0c-1.19.8-12.08,4.13-13.75,15-.23,1.49,14.67,0,17.51-.18,6.34-.4,15.75.37,14.84-1.15C164.83,378.16,151.48,370.71,150,370.5Z"/><rect class="cls-13" x="151.84" y="379.37" width="148.47" height="5.63"/><path class="cls-16" d="M291.16,389h30.51a2.63,2.63,0,0,0,2.63-2.63V375.58a5.82,5.82,0,0,0-1.38-3.77l-4.46-2.07s3.17,9.6,0,12.43S288.53,385,288.53,385v1.37A2.63,2.63,0,0,0,291.16,389Z"/><path class="cls-8" d="M295.72,342c11.82-17.49-.54-41.42-21.89-41.6-15.29-2.24-74.09-.26-100.29.58-25.22.28-32.57,13.2-27.82,23,3.91,8,34.11,17.16,68.3,23.56,8,1.49,45,7.37,52.38,7.12C277.38,354.29,290,352,295.72,342Z"/><path class="cls-17" d="M285.37,303.14A26.6,26.6,0,0,1,294,324.47c-.68,13.83-21.42,17.76-55.9,15.51-27-1.76-96-9-93.23-25a12.66,12.66,0,0,0,.9,9c3.91,8,34.11,17.16,68.3,23.56,8,1.49,45,7.37,52.38,7.12,11-.36,23.6-2.61,29.32-12.61C305.19,328,299.13,309.89,285.37,303.14Z"/><circle class="cls-3" cx="248.02" cy="324.47" r="9.5"/><path class="cls-8" d="M252.11,324.47a4.1,4.1,0,1,1-4.09-4.09A4.09,4.09,0,0,1,252.11,324.47Z"/><path class="cls-12" d="M248,326a1.49,1.49,0,0,1-1.39-.93l-6.09-14.8a4.47,4.47,0,0,0-4.51-2.76l-7.82.64a1.5,1.5,0,0,1-.24-3l7.81-.64a7.44,7.44,0,0,1,7.53,4.6l6.09,14.8a1.5,1.5,0,0,1-.81,2A1.46,1.46,0,0,1,248,326Z"/><path class="cls-5" d="M235.76,303.13s-11,1.17-12.34,1.5-1.5,5.84,1.5,5.84A74.56,74.56,0,0,0,237,308.64C238.51,308.05,238.87,302.79,235.76,303.13Z"/><polygon class="cls-13" points="146.03 382.2 173.77 217.12 178.97 217.92 151.23 383 146.03 382.2"/><path class="cls-10" d="M199.58,205.09s-6.17,7.84-8,11.34-4.84,10.67,0,15.84,22.67.5,25.51-1,16-9.3,18-11.4S203.75,199.57,199.58,205.09Z"/><path class="cls-18" d="M250.77,157.24a44.67,44.67,0,0,1,7,6.84,23.89,23.89,0,0,1,5,16c-.13,5.29-5.33,14.17-7.84,18.5s-20.67,25.34-22.34,26.18-28.8-10.1-34.34-19.34c-.5-.84,13.5-17.18,14.33-19.68s3.17-8.17,3.17-8.17Z"/><path class="cls-10" d="M189.45,228.7a61.9,61.9,0,0,0,4.79,9.87c2.88,4.62,8.66,13,11.42,17.29,3.09,4.86,11.51,16.34,18.6,30.43,2,4.06,3,10.59,2.75,11.84s7.37.71,9-.67a8.16,8.16,0,0,0,2.25-3.62s-3.5-9-3.75-14.26.75-21.63-2-29.63-13.63-21.51-16.76-23S189.45,228.7,189.45,228.7Z"/><path class="cls-12" d="M232.8,295.78s1-5.41,3.35-5.41,2,1.5,2.41,2.07a15.4,15.4,0,0,1,2.56,3.91c.46,1.46-.27,3.82-3.13,5-1.59.68-2.24.35-3.56,1.06-.25.14-3.62,2.92-5.19,3.77s-7.53,5.12-8.88,4.41-1.35-3,0-5.4,5-6.83,5.26-8.89,0-3.27,1.14-3.34,3.34.42,3.76,1.78S232.65,296.44,232.8,295.78Z"/><path class="cls-19" d="M167.41,144.4a27.3,27.3,0,0,0-4.48,8.63c-1.39,4.84-4.25,21.89-4.85,25.25s-.34,11.88-1.13,13.11-4.16,1.13-6.46,2.81-.94,2.35-.11,3.88,3.44,2.29,3.44,2.29,2.77-.73,1.54-1.52-.53-1.21,1-1.16,3.19.21,4.56-1.69,7.27-9.48,8.59-11.64,9.79-19.13,10.9-27.46,1.78-9.45,2.38-11.44C183.53,142.86,167.41,144.4,167.41,144.4Z"/><path class="cls-19" d="M169.81,132.08s-3,7.67-2.33,13.2,11.68,8.59,14.68,2.17,3.25-14.92,3.25-14.92Z"/><path class="cls-20" d="M179.87,109.72c3.87-.94,8.67,3.67,9.17,8.34s-1,22.94-2.83,25.84c-2.71,4.21-16.15,2.5-18.84-2.16C166.72,140.61,172.19,111.59,179.87,109.72Z"/><path class="cls-21" d="M180.69,107.05s4.3-2.5,7.47-1.41a175.36,175.36,0,0,1,23.22,11.5c7.5,4.63,28.05,21.93,31.72,24.6s11.67,11.83,9.33,17.17c0,0-18.67,17.84-31.68,20.34s-13.5-1-15.84-4.84-6.16-9.5-10.67-12.67-10.72-12.44-12.5-15.44-8.78-26.2-5-34.08C179.54,106.37,180.69,107.05,180.69,107.05Z"/><path class="cls-20" d="M219.27,179.52a17.84,17.84,0,0,1-13.69-14.94c-.33-4.34-5,.66-7.35-2.67a17.91,17.91,0,0,1-2.72-11.17c.43-2.5,2.24-9,1.57-16.17a106,106,0,0,0-2.84-15.18l-11.85,19.18-.43,8.09c2,3.31,7.94,12,12.28,15.08,4.51,3.17,8.34,8.84,10.67,12.67S207.71,181.47,219.27,179.52Z"/><path class="cls-10" d="M175.9,104.61a20.1,20.1,0,0,1,1.71,5.91c0,.67,0,3.37,1.48,1.44,2.56-3.45,3.17-4.54,3.9-5.34s-.58-2.15-.58-2.15l-3.27-2.25Z"/><path class="cls-19" d="M176.42,105.86s.75,1.43,1.32,1.57,2.83-2,2.95-3.36-2.27-2.75-2.95-2.5S176.42,105.86,176.42,105.86Z"/><path class="cls-10" d="M172.07,96.55a46.57,46.57,0,0,0,0,5c.16,1.5,1.33,5.42,3.33,4.75a11.6,11.6,0,0,0,5.17-4.08C181.57,100.72,175.74,92.55,172.07,96.55Z"/><path class="cls-22" d="M177.65,100c-1.63-.68-5.34,1.76-7,.91-3.08-1.58-3.09-4.91-1.83-7.17A3.16,3.16,0,0,1,172,92s-.67-2.59,1.33-3.17,2.92,1,3.92,1.83,1.41-2.88,3.83-1.94a6.61,6.61,0,0,1,3.42,3.19c.33.42,2.65-2,3.81.08s-1.06,5.92-1.06,5.92,3.17,4.17.25,6.34-7.32,3.94-8.84,2S178.7,100.4,177.65,100Z"/><path class="cls-23" d="M177.65,100c1,.43-.51,4.31,1,6.25s5.92.17,8.84-2a2.92,2.92,0,0,0,.93-1.12c-.24.39-1,1.16-3.43,1.39-3.25.31-.75-2.29-2.42-2.95s-1.66,2.43-2.58.93,2.83-6.92,0-5.67-5.49,2.75-8,2.17-4.21-2.8-3.69-4a4.75,4.75,0,0,0,2.35,5.94C172.31,101.73,176,99.29,177.65,100Z"/><path class="cls-10" d="M175.63,136.9s-2.75,7.75-1.95,13.26,11.93,8.25,14.74,1.75,2.82-15,2.82-15Z"/><path class="cls-10" d="M173.59,149.28a27.34,27.34,0,0,0-4.23,8.75c-1.25,4.88-3.63,22-4.13,25.39s0,11.88-.75,13.13-4.12,1.25-6.38,3-.87,2.38,0,3.88,3.51,2.18,3.51,2.18,2.75-.8,1.5-1.56-.57-1.19.93-1.19,3.19.13,4.51-1.81,7-9.69,8.25-11.88,9.24-19.41,10.11-27.76,1.51-9.5,2.05-11.5C189.66,147.28,173.59,149.28,173.59,149.28Z"/><path class="cls-21" d="M186.24,107.05c3.87-.94,8.67,3.67,9.17,8.34s-1,22.94-2.83,25.84c-2.71,4.21-16.16,2.5-18.84-2.16C173.09,137.94,178.56,108.92,186.24,107.05Z"/><circle class="cls-15" cx="226.07" cy="214.35" r="29.74" transform="translate(-21.72 403.17) rotate(-80.78)"/><path class="cls-4" d="M215.18,231.1a1.82,1.82,0,0,1-2.85-1.77v-30a1.82,1.82,0,0,1,2.85-1.77l30.64,15.32c1.57.79,1.57,2.07,0,2.86Z"/><path class="cls-24" d="M133,400.19c27.24,2.16,52.23,7.59,65.32,21.11,20.53,21.2,15.79,73.32-5.53,81s-123.66,6.41-137.48,0-25.89-74.25,4-87.95S117.55,399,133,400.19Z"/><path class="cls-25" d="M56.71,532.21s3.2,20.57,5.57,24.85,4-19.17,4-19.17Z"/><path class="cls-25" d="M197.54,532.21s-3.2,20.57-5.57,24.85-4-19.17-4-19.17Z"/><path class="cls-26" d="M50,481.4c9-3.71,55.69-10.28,71.64-10.41,45.68-.36,80,7.1,89.36,16.76,4.74,4.89,5.26,13.09,7.6,25,3.89,19.82-4.47,36.81-92.42,36.81S35.94,534.09,37.46,516.8C39,499.21,39.88,485.57,50,481.4Z"/><path class="cls-27" d="M218.59,512.73c-.24-1.23-.46-2.41-.67-3.55l-12,1.08s2.33,13-27,14.13-122,8.08-130.67-7.07A42.5,42.5,0,0,0,38.48,506c-.37,3.38-.68,7-1,10.77-1.52,17.29.77,32.74,88.71,32.74S222.48,532.55,218.59,512.73Z"/><path class="cls-28" d="M60.86,466.56c.58-9.4-15.06-17.88-23.49-4.31s-19.56,43.42-6.29,53.37,33.13,5,29.78-6.78C51.78,477,60.29,475.73,60.86,466.56Z"/><path class="cls-28" d="M192.56,466.56c-.58-9.4,15.06-17.88,23.49-4.31s19.56,43.42,6.29,53.37-33.13,5-29.78-6.78C201.64,477,193.13,475.73,192.56,466.56Z"/><path class="cls-29" d="M403.12,298.84s6.15,4.51,9.19,10.41,11.93,27.62,16,32-6.47,16.41-13,11.29-15.17-21.63-15.25-22.61S403.12,298.84,403.12,298.84Z"/><path class="cls-29" d="M408.31,344.25A29.56,29.56,0,0,0,422.1,359c4.16,2.09,22.47,6,24.83,6.35s4.72-3.55,3.93-5.72-9.05-7.67-12-9.24-12.53-10.83-14.62-13.48S408.31,344.25,408.31,344.25Z"/><path class="cls-30" d="M388.11,275.33s-4.31-4.78-9-2.86a9.16,9.16,0,0,0-5.9,9.24c.29,3-.26,6.15-1.74,7.48s-8.85,2.95-10.17,7.23-2.36,14.16,5.45,15.78,19.16-4.78,20.65-9.88a51.17,51.17,0,0,0,1.77-15.49Z"/><path class="cls-31" d="M360.36,302.48c2.56,6.83,8.93-1.49,9.82-5s1-1.26,3.54.29,5.18.06,8-2.06c3.22-2.45,2.21-8,1.55-9.81-.54-1.45,2.93-.53,5.74-1l.17,1.92a51.17,51.17,0,0,1-1.77,15.49c-.64,2.19-3.1,4.61-6.31,6.55a78,78,0,0,1-14.46,3.29C361.67,311.06,360.33,306.64,360.36,302.48Z"/><path class="cls-12" d="M353.12,377.69s-12.2-6.69-18.49,0-5.76,23.14,1.32,26.74,16.3,17.17,16.3,17.17Z"/><path class="cls-10" d="M403.36,501.53a30.66,30.66,0,0,0-5.24,9.48c-1.69,5.35,2.4,19.92-2,19.84s-8.29-9.94-9.72-12.37-5.09-4.4-3-7.52c.52-.77,2.54-2.69,3-4.43a84.24,84.24,0,0,0,2.21-15.13C388.57,490.41,403.36,501.53,403.36,501.53Z"/><path class="cls-1" d="M385.33,507.49a15.37,15.37,0,0,0-2.66,3.92c-1.24,2.53,0,7,1.29,8.89a27.35,27.35,0,0,1,3,7.91c.25,1.64,3.17,8.72,7.36,9.43s4.89-4.25,5.14-6.58-1.39-11.22-1.5-11.71,1-6.24-3.14-6.94-3.62,4.25-5.76,4S385.33,507.49,385.33,507.49Z"/><path class="cls-32" d="M394.22,361.17s3.3,13,3.86,15.93,40.73,41.46,42.46,49.45c2.35,10.83-16.82,22.23-28,15.45s-33.93-29.5-36.29-31.86-13.86-59.79-13.86-59.79Z"/><path class="cls-32" d="M437.57,425.94s5.31,7.48-2.36,26.66-33.27,54.89-33.27,54.89a46.45,46.45,0,0,1-7.74-2.88c-2.79-1.4-5.3-5.1-6.19-6-1.77-1.77,6.49-34.22,10-46.91s15.53-18.88,15.53-18.88Z"/><path class="cls-33" d="M374.69,406l6.08-31.3s1,7.6,5.48,19.53c1,2.75,1.61,8.82,5.61,14.71,3.79,5.58,9.95,15.6,16.45,20.06s13.25,7.35,6.36,14-22,60-22.16,60.42a43.48,43.48,0,0,1-4.5-4.85c-1.77-1.77,6.49-34.22,10-46.91a30.28,30.28,0,0,1,8.66-13.79c-11.85-9.15-28.48-25.78-30.48-27.78A15.22,15.22,0,0,1,374.69,406Z"/><path class="cls-34" d="M395.84,297a11.22,11.22,0,0,1,5.53,1c3.4,1.32,5.7,4.08,7.45,9.07.85,2.4,2.28,7.11,3,9,1.73,4.55.58,8.38-1.63,12.07s-2.7,4.46-4.68,8.3c-.85,1.64-2.72,3.15-4.29,8-2.09,6.5-3.91,17.37-4.5,18.05-1,1.18-18.29,5.16-23.6,2.5s-9.34-9.88-12.78-12.24,11.56-47.65,17.35-51.92C383.3,296.71,395.84,297,395.84,297Z"/><path class="cls-29" d="M383.17,316.18s-1.88,7.69,2.69,10.12,10.42.06,9.69,1.83-4.51,4-9.48,5.32-.44,15.29,1.71,16.9c3.69,2.75,9.64,9.81,9.64,9.81s-15.13-2.68-19.27-4.45-14-12.54-14-16.22S383.17,316.18,383.17,316.18Z"/><path class="cls-35" d="M353.12,566.68s-18.5,18.29-23.51,21.44-30.38-12-28.61-15.66,23.6-23.08,23.6-23.08Z"/><path class="cls-14" d="M455.78,588.46S406,609.31,401.4,612.85s-8,11.8-5.35,14.16,7.42,7.87,17.25,4.72,57.43-24.78,58.21-28.32S463.65,590.22,455.78,588.46Z"/><path class="cls-36" d="M445.69,592.71s3.94,14.45-5.84,17.52-15.55,1.72-19.28-1.94S445.69,592.71,445.69,592.71Z"/><path class="cls-35" d="M413.3,631.73c-9.83,3.15-14.55-2.36-17.25-4.72s.73-10.62,5.35-14.16c3.44-.39,3.44,14.16,7.42,15.7,2.2.84,20.61-6.85,26.31-9.41s36.38-15.73,36.38-15.73l-.11.25C468.77,607.84,422.93,628.65,413.3,631.73Z"/><path class="cls-12" d="M323.62,559.76c-3.94-2.71-12.2-18-12.2-34.18s7.08-43.66,24-41.3,48.77,12.13,73.94,38.32,29.35,49.37,33,61.38-5.43,27.35-14.87,26.56S327.55,562.47,323.62,559.76Z"/><path class="cls-37" d="M317.94,529.12c4.5,9,25.22,28.54,48.05,44,25.23,17.15,54.57,35.12,54.58,35.12-23.57-9.53-93.51-46.16-96.95-48.53-3.94-2.71-12.2-18-12.2-34.18,0-8.64,2-20.54,6.52-29.38C317.94,496.21,313.45,520.08,317.94,529.12Z"/><path class="cls-38" d="M369,559.8s-8.67.25-10.43,2.78c-1.21,1.74,2,6.62,6.34,6.78a44,44,0,0,0,7.87-.4Z"/><path class="cls-14" d="M336.55,484.14c17,1.7,47.64,12.27,72.81,38.46s29.35,49.37,33,61.38-5.43,27.35-14.87,26.56a31.6,31.6,0,0,1-6.89-2.25c14.35,3.66,14.36-17.21-1-45.34s-23-39.73-56.25-59.4c-29.3-17.3-45.4-7.35-45.4-7.35C321.83,488.54,326.66,483.15,336.55,484.14Z"/><path class="cls-38" d="M443,382a1.77,1.77,0,0,1-.6-3.43c6.27-2.28,6.79-7.41,6.79-12.48,0-2-2.4-10.4-3.92-15.24a1.77,1.77,0,1,1,3.38-1.06c.42,1.34,4.08,13.14,4.08,16.3,0,4.06,0,12.5-9.12,15.81A1.86,1.86,0,0,1,443,382Z"/><path class="cls-35" d="M422.23,546.76s15.34-33.51,20.68-55.13c6.29-25.46,13.58-71.39-4.42-103.84,0,0-6.28-7.15-6.58-.07,0,0,6,19.06,6.9,30.84,1.18,15.44-.55,37.48-6.9,68.3-4.51,21.9-11.85,45-19.23,56.69C412.68,543.55,415.37,550.08,422.23,546.76Z"/><path class="cls-38" d="M420.57,385.16h-.23c-1.1-.15-10.87-1.55-14.51-4.76s-1.63-19-.58-25.6a1.77,1.77,0,1,1,3.5.56c-1.68,10.6-1.95,21.06-.58,22.39,2.15,1.89,8.89,3.39,12.64,3.9a1.77,1.77,0,0,1-.24,3.52Z"/><path class="cls-14" d="M445.57,400.75s-13.42,2.52-15.05,2.38-3.24-2.95-5.6-6.64-11.36-23.16-11.36-25.22,27-5.29,28.76-5.15S449.41,400.05,445.57,400.75Z"/><path class="cls-12" d="M442.32,366.12c.19,0,.41.41.65,1.07-7.72.79-25.28,3.21-25.28,4.88,0,2.06,9,21.53,11.36,25.22A40.36,40.36,0,0,0,433,402.9a16.93,16.93,0,0,1-2.44.23c-1.62-.15-3.24-2.95-5.6-6.64s-11.36-23.16-11.36-25.22S440.55,366,442.32,366.12Z"/><path class="cls-12" d="M440.89,391.55s-7.11,1.09-8,1-1.72-1.27-3-2.86-5-9.1-5-10,13.26-3.18,14.2-3.12S442.93,391.25,440.89,391.55Z"/><path class="cls-10" d="M376.8,539.55a30.56,30.56,0,0,0-3.12,10.37c-.52,5.59,6.56,19,2.26,19.81s-10.22-8-12.12-10-5.91-3.23-4.5-6.72c.35-.87,1.92-3.17,2-5a83.85,83.85,0,0,0-1-15.26C360,531.81,376.8,539.55,376.8,539.55Z"/><path class="cls-32" d="M362.36,350.35s-9.83,8.89-15.34,15.77-10,21.28-4.13,37c4.44,11.85,18.49,56,22.22,61.48s18.88,14.56,26.95,9.05,6.44-20.65,4.67-28.12-12.93-46.61-14.51-53.69c-.84-3.81,2.7-19.42-1.45-28.62C377.21,355.32,366.18,353.71,362.36,350.35Z"/><path class="cls-32" d="M398.08,455.27s.49,4-3,18.09-16.93,69.07-16.93,69.07-6.21,6.92-18.8-3.26c-1.95-1.58-6.31-36.81-2.5-62.78s13.84-35.26,13.84-35.26S396.73,449.69,398.08,455.27Z"/><path class="cls-1" d="M360.43,549.18a15.68,15.68,0,0,0-1.77,4.4c-.68,2.74,1.47,6.8,3.15,8.42a27.63,27.63,0,0,1,4.63,7.08c.59,1.55,4.95,7.86,9.19,7.66s3.88-5.19,3.63-7.51-3.74-10.67-3.94-11.13-.3-6.32-4.54-6.12-2.64,4.92-4.78,5.15S360.43,549.18,360.43,549.18Z"/><path class="cls-10" d="M450.57,357.84c-2.3-.26-6,1.37-5.6,2.22s3.52-.17,3.63.14-4,.68-3.56,1.88,3.55.19,3.55.19-2.89.91-2.3,1.81,3.37-.11,3.37-.11-2.24.91-1.48,1.4,2.79.18,4.24-.28C453.19,364.83,452.86,358.1,450.57,357.84Z"/><path class="cls-34" d="M384.48,304s-1.93-5.6-5.1-4.37c-2.3.89-9.49,3-15.85,13.89-1.87,3.21-13.21,27.12-6.91,35.25,1.56,2,8.35-3,11.07-2.21,8.26,2.49,10.14-19.32,11.69-22.58S386,306.91,384.48,304Z"/><path class="cls-10" d="M398.42,361.72s2.41,2,4.62,1.87,6.91.74,7,2,.34,1.11,0,1.82.33,1.57.17,2.15-.34.73-.62,1.67-2.83,3.22-4.42,2.5a23.78,23.78,0,0,1-4.24-2.5c-1.31-.95-3.74-2.64-4.25-3S398.42,361.72,398.42,361.72Z"/><path class="cls-34" d="M401.1,362.54s-12.51-8-14.58-10-17.38-22.34-23.61-18.63c-2.73,1.63-7,4.44-7.75,8.43s3.07,11.84,12.24,16.57c16,8.25,24,11,30,13C397.44,371.92,402.06,366.81,401.1,362.54Z"/><path class="cls-10" d="M397.56,291.39a12.5,12.5,0,0,0-.39,3.21c.2,4,2.46,5.6,1.57,9.73s-14.42-4.69-12.49-6.37c2.84-2.48,2.84-9.34,2.84-9.34Z"/><path class="cls-19" d="M396.87,293s-.67,2.22-2,2.07-7.06-5.61-7.06-5.61S396.44,290.22,396.87,293Z"/><path class="cls-10" d="M400.54,277.71s1.5,6.46,1.35,10.3-2.07,5.9-5,5-7.08-3.54-8.85-6.19S394.5,272.54,400.54,277.71Z"/><path class="cls-30" d="M394.84,283.88a59.88,59.88,0,0,0,8.38-1.62c2.92-1.11,4.9-7.24,1.06-10.34s-9.4-1.93-9.4-1.93S391,266.18,387,268.1a8.27,8.27,0,0,0-4.42,6.19s-5.21,11.71,3.5,18.94c2.21,1,4.08-1.22,5.57-4.61S392.26,284.17,394.84,283.88Z"/><path class="cls-31" d="M383.85,291.39a25.5,25.5,0,0,0-.62-5.52c-.66-1.77,4.65,0,7.45-1.48s-1.33-3.83-1.11-6.85,3.76,3,8.26,3.07,4.13-.2,6.35-1.38,2.06-3.88,2.05-4.17c.7,3-.91,6.4-3,7.2a59.88,59.88,0,0,1-8.38,1.62c-2.58.29-.1,5-1.58,8.36s-3.83,5.91-7,5.72C385.61,297.42,384.34,292,383.85,291.39Z"/><path class="cls-3" d="M360.81,563s9.19-7.75,15-3.7a4.79,4.79,0,0,1,1.52,3.7s-7.74-2.09-14.45,2.71Z"/></g></g></svg>