<svg xmlns="http://www.w3.org/2000/svg" viewBox="0 0 92.63 146.44"><defs><style>.cls-1{fill:#ffa27f;}.cls-2{fill:#452a51;}.cls-3{fill:#2a1a33;}.cls-4{fill:#fbe9dc;}.cls-5{fill:#e8c5af;}.cls-6{fill:#c94931;}.cls-7{fill:#693523;}.cls-8{fill:#f9764a;}.cls-9{fill:#ffb288;}.cls-10{fill:#fff;}</style></defs><g id="Layer_2" data-name="Layer 2"><g id="_ÎÓÈ_1" data-name="—ÎÓÈ_1"><path class="cls-1" d="M48.66,52.89c-1,3.69-3.61,9.77-4.93,13.25-.65-.63-6.32-9.82-7-10.63l-1,8.56,7.7,8.64A1.64,1.64,0,0,0,46.21,72,81.89,81.89,0,0,0,50.7,53.14Z"/><path class="cls-2" d="M18.15,145,15.6,139.1c-.13-.29-.46-.49-.66-.39l-3.17,1.57c-.18.09-.16.39.05.62l4.35,4.84C17.32,147,18.79,146.44,18.15,145Z"/><path class="cls-2" d="M29.07,144.14l-2.56-5.88c-.12-.29-.45-.48-.65-.38l-3.17,1.57c-.18.09-.16.38,0,.62l4.35,4.84C28.23,146.18,29.71,145.6,29.07,144.14Z"/><path class="cls-1" d="M32.86,106.69c1.09,4.56.28,7.06-2.48,13.29-2.49,5.62-3.79,11.29-5.51,17.16-1.1,3.72,1.17,6.16,3.43,1.19,6.81-15,11.22-19.83,11.82-26a37.44,37.44,0,0,0,0-6.94Z"/><path class="cls-2" d="M40.15,105.22c-.12-1.31-.26-2.48-.44-3.55A100.64,100.64,0,0,0,36,85.43c-1.52-4.24-5.28-2.79-8.11-1.78s-4.83,3.67-3.8,6.57c3.49,9.78,4.54,12.06,5.51,15.51a3.06,3.06,0,0,0,3.48,2.18l7.19-1.32Z"/><path class="cls-1" d="M22.65,108.2c.9,4.33,0,6.86-2.72,12.87-2.57,5.59-4,10.89-5.77,16.74-1.14,3.7,1.13,6.52,3.45,1.59,7-14.89,11.47-19.69,12.15-25.88a37.11,37.11,0,0,0,.08-6.67Z"/><path class="cls-2" d="M26,89.08c-2.87-8.38-13-6-10.9,0,3.6,10.52,3.62,15,4.55,18.88a2.36,2.36,0,0,0,2.72,1.77l7.72-1.45C29.91,105.49,29.74,100,26,89.08Z"/><path class="cls-3" d="M30.15,108.5a.25.25,0,0,1-.25-.23l0-.54a58.28,58.28,0,0,0-2.45-13.56L27.36,94,29,92.77a.25.25,0,0,1,.3.4l-1.38,1a58.55,58.55,0,0,1,2.42,13.49l0,.54a.26.26,0,0,1-.23.27Z"/><path class="cls-2" d="M18.85,11.6A9.77,9.77,0,0,0,17,14.87c-2,5.64-2.44,8.23,0,13.68.4.89,1.84,4.57,5.42,4.8,1.49.09,3.33-.53,4.8-.75a2.25,2.25,0,0,1,1.21.3,2.53,2.53,0,0,0-.31.49,3.35,3.35,0,0,1-.76,1.15,5.7,5.7,0,0,0-.65.44.94.94,0,0,0-.25.47,1.68,1.68,0,0,0,0,.18A5.75,5.75,0,0,0,28.39,41,13,13,0,0,0,30,43.32c-.09,0-.16,0-.17.09s.34.34.43.4c.24.12.5.2.74.31.63.32,1.25,1.38,1.8,1.82a4.62,4.62,0,0,0,3,.92c.94-.11,1.33-1.27,1.86-2.06a3.54,3.54,0,0,1,.6-.82c.24-.18.54-.27.79-.43a2.13,2.13,0,0,0,.86-1.46V42a10.2,10.2,0,0,0,0-1.66,13.77,13.77,0,0,0-.07-2.65,3.69,3.69,0,0,0-.35-1,2.34,2.34,0,0,0-1-1c0-.13-.07-.25-.11-.37a3.63,3.63,0,0,0-1.5-1.78l-.43-.23A5.65,5.65,0,0,0,33.25,33c-.34.06-.69.14-1,.18-.35-1.43,1.31-3.63.12-4.74-.48-.44-1.23-.46-1.74-.86a2,2,0,0,1-.45-2.26,10.31,10.31,0,0,1,1.27-2.1,9.52,9.52,0,0,0-1-11.81l-.1-.09C27.19,8.45,21.71,8.45,18.85,11.6Z"/><path class="cls-1" d="M18.67,72.18c-1.57,8.3-6.44,15.23-1.47,16.1,7.83,1.38,11.26.65,15.44-.2,1-.2,2.36-.26,3-1.56a4,4,0,0,0,.24-2.85C34.4,78.53,34.22,75,34.65,72,29.44,74.35,23.51,73.78,18.67,72.18Z"/><path class="cls-4" d="M36.63,64.87a14,14,0,0,0,.93-6.43,9.92,9.92,0,0,0-1.36-4.62,4,4,0,0,0-1.44-1c-6-2.18-10.9-.47-13.32.28a2.94,2.94,0,0,0-1.85,1.68l-.31.75A25.16,25.16,0,0,0,17.4,66.82a20.05,20.05,0,0,1-.15,3.94,1.8,1.8,0,0,0,1.32,2c5,1.36,10.78,1.64,15.91-.63A30.72,30.72,0,0,1,36.63,64.87Z"/><path class="cls-1" d="M76.77,110.25l-7-4.62c-2.46,7.76,1.43,13.52,3.38,32.57.55,5.4,3.58,4.41,3.74.59.26-6,1-12,.39-18C76.78,115.73,75.75,112.87,76.77,110.25Z"/><path class="cls-4" d="M78.93,86.65l0-.34L79.08,85l-1.34-.29L66.2,82.94l-.08,1.17a2.47,2.47,0,0,0,0,.37c0,5.79.34,13.72,1.12,22.87a3.92,3.92,0,0,0,2.56,3.36l6.86,2.51A197,197,0,0,1,78.93,86.65Z"/><path class="cls-1" d="M86.67,109.75l-7.5-3.84c-1.62,8,2.88,13.29,6.85,32,1.13,5.31,4,4,3.78.19-.39-6-.34-12-1.55-18C87.26,115.2,85.93,112.47,86.67,109.75Z"/><path class="cls-4" d="M86.91,87.37a3.79,3.79,0,0,0-3.59-3.85L74,83.06,74,84.23a3.21,3.21,0,0,0,0,.36c.64,6,1.93,14.37,3.82,23.93a1.71,1.71,0,0,0,1.31,1.32l6.3,1.33a1.58,1.58,0,0,0,1.92-1.67C86.7,100.12,86.8,91.93,86.91,87.37Z"/><path class="cls-5" d="M83.05,111h0l-3.82-.81a2.5,2.5,0,0,1-1.92-1.94c-.8-4.08-1.51-8-2.12-11.8l-1.77-.79a.25.25,0,0,1-.13-.33.25.25,0,0,1,.33-.13l2,.9,0,.13c.61,3.79,1.33,7.8,2.14,11.92a2,2,0,0,0,1.53,1.55l3.82.81a.25.25,0,0,1,.2.29A.26.26,0,0,1,83.05,111Z"/><path class="cls-1" d="M25.42,55.06a4,4,0,0,0,1.9,1.77,6,6,0,0,0,2.67.86,3.43,3.43,0,0,0,1.83-.39,2.55,2.55,0,0,0,1.23-1.53,2.22,2.22,0,0,0,0-1.06,3.44,3.44,0,0,0-1.6-2,6.39,6.39,0,0,0-2.58-.75c-.77-.07-2.25-.21-3,.45A2.46,2.46,0,0,0,25.42,55.06Z"/><path class="cls-1" d="M9.56,63.93C8,60.58,5.67,53.56,4.32,50l-2.1,1.29C3,55.17,4.32,63.4,7.58,69.94a1.64,1.64,0,0,0,2.79.51l11.56-9.58a3.91,3.91,0,0,0,1.23-4.22L23,56.21a2.68,2.68,0,0,0-4.41-1.1C15.11,58.53,9.83,63.61,9.56,63.93Z"/><path class="cls-2" d="M2.51,51.18C7.46,42.43,8,33,4.25,20.63c-.18-.61-.38-1.22-.58-1.82a22.33,22.33,0,0,1-1.43-6.36A8.82,8.82,0,0,1,6.48,4.72C11.26,1.47,19.27.59,23.61.35c8.59-.47,16.22.71,20.93,3.25A12.24,12.24,0,0,1,51,11.81c1.3,5.5-.54,11.11-2.32,16.53-.32,1-.64,1.95-.95,2.92-2,6.45-3.21,13.27,1.41,19.46l.44-.1C45,44.49,46.25,37.71,48.24,31.3c.3-1,.62-1.94.94-2.92,1.79-5.44,3.63-11.06,2.33-16.6a12.47,12.47,0,0,0-6.63-8.36C40.06.83,32.3-.38,23.57.1,19.15.34,11,1.25,6.11,4.56a9,9,0,0,0-4.34,7.9A22.53,22.53,0,0,0,3.2,18.85c.2.61.4,1.21.59,1.82C7.52,33,7,42.39,2.06,51.11Z"/><path class="cls-1" d="M2.13,47.6a.64.64,0,0,1,.66.41,4.38,4.38,0,0,0,.5,1,3.28,3.28,0,0,1,1.22,1.45,1.64,1.64,0,0,1,0,.85,7.42,7.42,0,0,1-.56.86,7.61,7.61,0,0,1-.31.79c-.16.23,1,2.44.83,2.2L3,53.66a10.7,10.7,0,0,0-2-2.2A4.78,4.78,0,0,1,.28,51,.78.78,0,0,1,0,50.32,13.2,13.2,0,0,1,1.5,48.14S2,47.62,2.13,47.6Z"/><path class="cls-1" d="M52.24,51.08a12.91,12.91,0,0,0-1.88-1.85s-.56-.42-.72-.41a.65.65,0,0,0-.57.53,4.06,4.06,0,0,1-.3,1.07,3.43,3.43,0,0,0-.92,1.66,1.59,1.59,0,0,0,.12.84c.17.3.5.47.71.73a7.38,7.38,0,0,0,.46.72.22.22,0,0,1,0,.16l.81.41a11.14,11.14,0,0,1,1.59-2.57,3.93,3.93,0,0,0,.53-.55A.8.8,0,0,0,52.24,51.08Z"/><path class="cls-2" d="M69.74,141.49l6.07-2c.3-.1.67,0,.72.23l1,3.4c.05.2-.18.38-.5.38h-6.5C68.78,143.47,68.22,142,69.74,141.49Z"/><path class="cls-2" d="M83.3,141.46l6.07-2c.3-.1.67,0,.73.23l1,3.4c0,.2-.18.38-.49.38H84.05C82.34,143.44,81.78,142,83.3,141.46Z"/><path class="cls-1" d="M68.28,71.25,68.4,71a33.7,33.7,0,0,1,2.52-4.53,24.77,24.77,0,0,0,2.23-4c.72-1.92.67-5.54.17-6.29-.88-1.33-.51-2.35-1.62-1.77s-4.14,2.6-4.86,4.11c-.92,1.95-1.63,3.51-2.42,5.37-.39.91-.77,1.82-1.15,2.74l-.2.44a17.85,17.85,0,0,0-1.71,6.11,1.64,1.64,0,0,0,.76,1.17l6.31-3Z"/><path class="cls-2" d="M65.67,92.16c-.65-9.62,4.55-15.23,2.43-31.1-.52-3.93,1.77-6.64,6.54-7.84,4-1,12.41.29,15.52,2.21,2.52,1.56.58,2.84.67,5.17C91,65,91,67.06,88.67,71.09c-3.66,6.31-2.78,7.57-1.14,16.2.15.74.35,2-.16,2.6-.84,1-2.67.47-3.45,1-11.83,7.32-9.49,3.09-15.7,3.48A2.72,2.72,0,0,1,66.29,94,2.57,2.57,0,0,1,65.67,92.16Z"/><path class="cls-6" d="M84.11,41a2,2,0,0,1,.52,1.66,5.73,5.73,0,0,0-.23.7,2,2,0,0,0,.35,1.14,1.17,1.17,0,0,1,.11,1.15c-.22.32-.67.4-.92.7s-.18,1.27-.69,1.52c-.21.11-.49.07-.68.2s-.25.63-.51.84a.62.62,0,0,1-.72,0,1.56,1.56,0,0,1-.47-.6,2,2,0,0,1-.22-1.41c.16-.55.68-.91,1-1.35A2.32,2.32,0,0,0,82,43c-.15-.26-.36-.48-.53-.73a1.21,1.21,0,0,1-.22-.85,2.15,2.15,0,0,1,.41-.7.81.81,0,0,0,.14-.77c-.06-.11-.16-.19-.22-.31-.15-.32.13-.58.43-.62s.43.11.63.29A12,12,0,0,1,84.11,41Z"/><path class="cls-6" d="M73.35,39.14a1.89,1.89,0,0,1,.8-1.38,5.67,5.67,0,0,0,.61-.28,1.82,1.82,0,0,0,.55-.95c.13-.35.35-.72.72-.78s.69.2,1,.18c.53,0,1-.67,1.46-.48.2.08.34.29.56.34s.58-.22.88-.18a.55.55,0,0,1,.44.49,1.28,1.28,0,0,1-.11.69,1.86,1.86,0,0,1-.81,1,4.05,4.05,0,0,1-1.56.13,2.11,2.11,0,0,0-1.9,1.4c-.08.26-.1.54-.17.81a1.06,1.06,0,0,1-.43.67,2,2,0,0,1-.73.16.73.73,0,0,0-.6.38c0,.11,0,.24-.08.35a.41.41,0,0,1-.68.09c-.21-.17-.19-.36-.19-.61A10.2,10.2,0,0,1,73.35,39.14Z"/><path class="cls-6" d="M82.85,46.94a4.47,4.47,0,0,1-.93,1.5,3.11,3.11,0,0,1-.81-2.21,1.54,1.54,0,0,0,.51-1.2c0-.72-.29-1.32-.7-1.34a.24.24,0,0,0-.09,0l2.9-2.41A10,10,0,0,1,82.85,46.94Z"/><path class="cls-1" d="M82,43.81a1.35,1.35,0,1,1-1.15,1.29A1.24,1.24,0,0,1,82,43.81Z"/><path class="cls-1" d="M75.3,39a4.35,4.35,0,0,0-1.74,3.33l.26,3.56c-.08,2.38,1.77,4.29,3.3,4.21,2.3-.13,4.64-1.62,4.72-4L82,42.73Z"/><path class="cls-1" d="M81.85,55.61l-3.21.06a.81.81,0,0,1-.82-.81l-.17-8.53a.81.81,0,0,1,.78-.84l3.22-.07a.83.83,0,0,1,.82.81l.17,8.53A.82.82,0,0,1,81.85,55.61Z"/><path class="cls-6" d="M77.35,42.26l1,0a.25.25,0,0,1,.24.26.26.26,0,0,1-.26.25l-1,0a.25.25,0,0,1-.24-.26A.26.26,0,0,1,77.35,42.26Z"/><path class="cls-6" d="M73.6,42.12l1,0a.26.26,0,0,1,.24.27.25.25,0,0,1-.26.24l-1,0a.25.25,0,0,1,0-.5Z"/><path class="cls-7" d="M74.2,43.31c0,.25.11.45.27.46s.3-.19.31-.44-.11-.45-.27-.46S74.21,43.06,74.2,43.31Z"/><path class="cls-7" d="M77.77,43.52c0,.25.11.45.27.46s.3-.19.31-.44-.11-.45-.27-.46S77.78,43.27,77.77,43.52Z"/><path class="cls-8" d="M75.32,44.79l0-.08a.5.5,0,0,0,.35.43l.49.16a.4.4,0,0,0,.42-.14.4.4,0,0,1-.5.49l-.49-.16A.51.51,0,0,1,75.32,44.79Z"/><path class="cls-9" d="M75.53,39a6.44,6.44,0,0,1,4.69-.2l-1.09.87Z"/><path class="cls-6" d="M74.25,39.45a14.09,14.09,0,0,0,8.8,3.47L83.12,40,76,38Z"/><path class="cls-6" d="M82,42.85l0,3.26a4.11,4.11,0,0,1-.93,2.94,9.32,9.32,0,0,1-1.64,1.29c-.84.5-2.9.27-3.77.23a2.18,2.18,0,0,1-1.76-1.72l-.1-2.75a16.66,16.66,0,0,0,4.51,0c1.42-.32,1.56-.62,2-2l.87-2.76Z"/><path class="cls-10" d="M77.27,47c0,.28-.21.6-.88.68,0,0-1,.07-.87-.57Z"/><path class="cls-6" d="M83.1,38a6,6,0,0,0,.38.71,2.54,2.54,0,0,0,1,.53,2.87,2.87,0,0,1,1.39,1.23,1.2,1.2,0,0,1,.15.45c0,.43-.41.74-.55,1.15s.11,1,0,1.5c-.24.84-1.44,1-1.81,1.8A9.92,9.92,0,0,0,83.2,43a2.61,2.61,0,0,0-.78-1.32c-.89-.68-2.27-.15-3.25-.69a5.09,5.09,0,0,1-1.39-1.62.85.85,0,0,0-.34-.31,4.07,4.07,0,0,0-.61-.08.83.83,0,0,1-.53-.56,2,2,0,0,1-.06-.8,1,1,0,0,1,.08-.38.75.75,0,0,1,.42-.32c.63-.23,1.34-.1,2-.32.46-.15.89-1.13,1.36-1s.91,1.42,1.51,1.56A2.15,2.15,0,0,1,83.1,38Z"/><ellipse class="cls-1" cx="78.85" cy="56.1" rx="5.03" ry="2.55" transform="translate(-11.07 20.34) rotate(-13.74)"/><path class="cls-1" d="M68.42,69.74l-.13,0L61.81,74a2.69,2.69,0,0,0,.29.3c4.6,1.53,17.34-.08,20.5-.59,1.78-.29,2.81-.91,2.7-1.62-.15-1-1.91-1.36-5-1.54S71.93,70.22,68.42,69.74Z"/><path class="cls-1" d="M90.79,55.75c-1.13-.65-1.84-.5-3.23.83C85,59,84.57,64.37,84,68.18a1.35,1.35,0,0,1-1.49,1.13c-2.47-.27-4.94-.61-6.73-.82-3.1-.38-5-.29-5.51.61-.4.66.35,1.44,2,2,3.44,1.26,10.92,4.1,14.23,3.19l0-.18.33.31c.36-.31,1.25-.12,1.4-.37,2-3.36,3.15-8.66,4.35-14A5,5,0,0,0,90.79,55.75Z"/><polygon class="cls-1" points="70.84 68.6 68.65 69.66 71.5 70.27 70.84 68.6"/><path class="cls-8" d="M85.54,74.6c-4.38,0-9.39-1.83-12.9-3.12l-.5-.18a4.53,4.53,0,0,1-1.91-1.15L68.59,70a.23.23,0,0,1-.22-.27.24.24,0,0,1,.27-.22l1.86.17.07.09a4,4,0,0,0,1.74,1.06l.5.18c4.15,1.52,10.42,3.82,15.12,2.87a.26.26,0,0,1,.3.2.25.25,0,0,1-.2.29A12.6,12.6,0,0,1,85.54,74.6Z"/><path class="cls-9" d="M31.81,37.05h4.48a2.28,2.28,0,0,1,2.28,2.28v.25a1.32,1.32,0,0,1-1.32,1.32H31.54a.28.28,0,0,1-.28-.28v-3a.55.55,0,0,1,.55-.55Z" transform="translate(2.45 -2.06) rotate(3.51)"/><path class="cls-1" d="M37.87,37.55a4.5,4.5,0,0,1,1.5,3.64l-.24,3.63a4.53,4.53,0,0,1-9.05-.6l.23-3.51Z"/><path class="cls-1" d="M27,53.75l3,1.12a.89.89,0,0,0,1.08-.61L34.55,45a.89.89,0,0,0-.4-1.18L31.2,42.72a.9.9,0,0,0-1.08.62l-3.5,9.24A.88.88,0,0,0,27,53.75Z"/><path class="cls-2" d="M35.14,40.69l-1-.37a.31.31,0,0,0-.38.18.29.29,0,0,0,.18.37l1,.37a.28.28,0,0,0,.37-.17A.29.29,0,0,0,35.14,40.69Z"/><path class="cls-2" d="M39.12,41.3l-.86,0c-.12,0-.23.12-.24.28s.08.3.21.3l.85.06a.3.3,0,0,0,0-.59Z"/><path class="cls-8" d="M37.44,44.19l0-.1a.58.58,0,0,1-.39.47l-.5.13a.36.36,0,0,1-.4-.21v.05a.42.42,0,0,0,.45.57l.5-.13A.62.62,0,0,0,37.44,44.19Z"/><path class="cls-2" d="M34.85,42.39c0,.28-.18.5-.36.48s-.32-.24-.3-.52.18-.5.36-.49S34.86,42.11,34.85,42.39Z"/><polygon class="cls-2" points="34.55 41.86 35.11 41.9 34.74 42.22 34.55 41.86"/><path class="cls-2" d="M38.8,42.63c0,.28-.18.5-.36.49s-.31-.25-.3-.53.18-.5.36-.49S38.82,42.35,38.8,42.63Z"/><polygon class="cls-2" points="38.5 42.1 39.06 42.14 38.7 42.46 38.5 42.1"/><path class="cls-1" d="M30.29,42.33a1.58,1.58,0,0,0-.2,3.09,1.58,1.58,0,0,0,.2-3.09Z"/><path class="cls-2" d="M32,41.29c-.59.78-.94,1.73-1.54,2.49A4.58,4.58,0,0,1,29,45C27,46,25,38.48,25.87,36.59c.66-1.46,2.75,3.77,3.54,2.37.57-1,.8-2.33,1.79-3a3.16,3.16,0,0,1,2.08-.33,16.83,16.83,0,0,1,2.53.57l1.82.51a.52.52,0,0,1,.2.09.46.46,0,0,1,.1.21c.09.3.47,1,.37,1.34s-.54.33-.83.33A6.91,6.91,0,0,0,32,41.29Z"/><path class="cls-10" d="M36.27,46.41l-1-.18a.15.15,0,0,1-.12-.17.15.15,0,0,1,.17-.12l1,.18a.14.14,0,0,1,.12.17A.15.15,0,0,1,36.27,46.41Z"/></g></g></svg>